<?xml version="1.0" standalone="no"?>
 <!DOCTYPE svg PUBLIC "-//W3C//DTD SVG 1.1//EN" 
 "http://www.w3.org/Graphics/SVG/1.1/DTD/svg11.dtd"> 
<svg
  xmlns:svg="http://www.w3.org/2000/svg"
  xmlns="http://www.w3.org/2000/svg"
  xmlns:xlink="http://www.w3.org/1999/xlink"
  version="1.1"
  width="71.1962mm" height="77.1398mm" viewBox="0.0000 0.0000 71.1962 77.1398">
<title>SVG Image created as vibrating_transmitters_pcb-Edge_Cuts.svg date 2025/05/19 23:10:14 </title>
  <desc>Image generated by PCBNEW </desc>
<g style="fill:#000000; fill-opacity:1.0000;stroke:#000000; stroke-opacity:1.0000;
stroke-linecap:round; stroke-linejoin:round;"
 transform="translate(0 0) scale(1 1)">
<path style="fill:none; 
stroke:#D0D2CD; stroke-width:0.0500; stroke-opacity:1; 
stroke-linecap:round; stroke-linejoin:round;fill:none"
d="M 23.2200,5.1000
47.2200,5.1000
47.2200,75.1000
23.2200,75.1000
Z" /> 
<path style="fill:#4D7FC4; fill-opacity:1.0000; stroke:none;fill-rule:evenodd;"
d="M 27.3700,34.9500
27.3700,33.2500
29.0700,33.2500
29.0700,34.9500
Z" /> 
</g>
<g style="fill:#4D7FC4; fill-opacity:1.0000; stroke:none;">
<circle cx="28.2200" cy="36.6400" r="0.8500" /> 
</g>
<g style="fill:#4D7FC4; fill-opacity:1.0000; stroke:none;">
<circle cx="28.2200" cy="39.1800" r="0.8500" /> 
</g>
<g style="fill:#4D7FC4; fill-opacity:1.0000; stroke:none;">
<circle cx="28.2200" cy="41.7200" r="0.8500" /> 
</g>
<g style="fill:#4D7FC4; fill-opacity:1.0000; stroke:none;">
<circle cx="28.2200" cy="44.2600" r="0.8500" /> 
</g>
<g style="fill:#4D7FC4; fill-opacity:1.0000; stroke:none;">
<circle cx="28.2200" cy="46.8000" r="0.8500" /> 
</g>
<g style="fill:#4D7FC4; fill-opacity:1.0000; stroke:none;">
<circle cx="28.2200" cy="49.3400" r="0.8500" /> 
</g>
<g style="fill:#4D7FC4; fill-opacity:1.0000; stroke:none;">
<circle cx="28.2200" cy="51.8800" r="0.8500" /> 
</g>
<g style="fill:#4D7FC4; fill-opacity:1.0000; stroke:none;">
<circle cx="28.2200" cy="54.4200" r="0.8500" /> 
</g>
<g style="fill:#4D7FC4; fill-opacity:1.0000; stroke:none;">
<circle cx="28.2200" cy="56.9600" r="0.8500" /> 
</g>
<g style="fill:#4D7FC4; fill-opacity:1.0000; stroke:none;">
<circle cx="28.2200" cy="59.5000" r="0.8500" /> 
</g>
<g style="fill:#4D7FC4; fill-opacity:1.0000; stroke:none;">
<circle cx="28.2200" cy="62.0400" r="0.8500" /> 
</g>
<g style="fill:#4D7FC4; fill-opacity:1.0000; stroke:none;">
<circle cx="28.2200" cy="64.5800" r="0.8500" /> 
</g>
<g style="fill:#4D7FC4; fill-opacity:1.0000; stroke:none;">
<circle cx="28.2200" cy="67.1200" r="0.8500" /> 
</g>
<g style="fill:#4D7FC4; fill-opacity:1.0000; stroke:none;">
<circle cx="28.2200" cy="69.6600" r="0.8500" /> 
<path style="fill:#4D7FC4; fill-opacity:1.0000; stroke:none;fill-rule:evenodd;"
d="M 29.0700,21.2500
29.0700,22.9500
27.3700,22.9500
27.3700,21.2500
Z" /> 
</g>
<g style="fill:#4D7FC4; fill-opacity:1.0000; stroke:none;">
<circle cx="28.2200" cy="19.5600" r="0.8500" /> 
</g>
<g style="fill:#4D7FC4; fill-opacity:1.0000; stroke:none;">
<circle cx="28.2200" cy="17.0200" r="0.8500" /> 
<path style="fill:#4D7FC4; fill-opacity:1.0000; stroke:none;fill-rule:evenodd;"
d="M 41.3700,34.9500
41.3700,33.2500
43.0700,33.2500
43.0700,34.9500
Z" /> 
</g>
<g style="fill:#4D7FC4; fill-opacity:1.0000; stroke:none;">
<circle cx="42.2200" cy="36.6400" r="0.8500" /> 
</g>
<g style="fill:#4D7FC4; fill-opacity:1.0000; stroke:none;">
<circle cx="42.2200" cy="39.1800" r="0.8500" /> 
</g>
<g style="fill:#4D7FC4; fill-opacity:1.0000; stroke:none;">
<circle cx="42.2200" cy="41.7200" r="0.8500" /> 
</g>
<g style="fill:#4D7FC4; fill-opacity:1.0000; stroke:none;">
<circle cx="42.2200" cy="44.2600" r="0.8500" /> 
</g>
<g style="fill:#4D7FC4; fill-opacity:1.0000; stroke:none;">
<circle cx="42.2200" cy="46.8000" r="0.8500" /> 
<path style="fill:#4D7FC4; fill-opacity:1.0000; stroke:none;fill-rule:evenodd;"
d="M 36.3700,8.2500
38.0700,8.2500
38.0700,9.9500
36.3700,9.9500
Z" /> 
</g>
<g style="fill:#4D7FC4; fill-opacity:1.0000; stroke:none;">
<circle cx="34.6800" cy="9.1000" r="0.8500" /> 
</g>
<g style="fill:#4D7FC4; fill-opacity:1.0000; stroke:none;">
<circle cx="32.1400" cy="9.1000" r="0.8500" /> 
<path style="fill:#4D7FC4; fill-opacity:1.0000; stroke:none;fill-rule:evenodd;"
d="M 42.0700,58.2500
42.0700,59.9500
40.3700,59.9500
40.3700,58.2500
Z" /> 
</g>
<g style="fill:#4D7FC4; fill-opacity:1.0000; stroke:none;">
<circle cx="38.6800" cy="59.1000" r="0.8500" /> 
</g>
<g style="fill:#4D7FC4; fill-opacity:1.0000; stroke:none;">
<circle cx="41.2200" cy="61.6400" r="0.8500" /> 
</g>
<g style="fill:#4D7FC4; fill-opacity:1.0000; stroke:none;">
<circle cx="38.6800" cy="61.6400" r="0.8500" /> 
</g>
<g style="fill:#4D7FC4; fill-opacity:1.0000; stroke:none;">
<circle cx="41.2200" cy="64.1800" r="0.8500" /> 
</g>
<g style="fill:#4D7FC4; fill-opacity:1.0000; stroke:none;">
<circle cx="38.6800" cy="64.1800" r="0.8500" /> 
</g>
<g style="fill:#4D7FC4; fill-opacity:1.0000; stroke:none;">
<circle cx="41.2200" cy="66.7200" r="0.8500" /> 
</g>
<g style="fill:#4D7FC4; fill-opacity:1.0000; stroke:none;">
<circle cx="38.6800" cy="66.7200" r="0.8500" /> 
</g>
<g style="fill:#4D7FC4; fill-opacity:1.0000; stroke:none;">
<circle cx="41.2200" cy="69.2600" r="0.8500" /> 
</g>
<g style="fill:#4D7FC4; fill-opacity:1.0000; stroke:none;">
<circle cx="38.6800" cy="69.2600" r="0.8500" /> 
</g>
<g style="fill:none; 
stroke:#4D7FC4; stroke-width:1.5000; stroke-opacity:1; 
stroke-linecap:round; stroke-linejoin:round;">
<path d="M28.2200 17.0200
L29.5800 17.0200
" />
<path d="M32.1400 14.4700
L32.1400 9.1000
" />
<path d="M38.8900 38.7400
L40.9900 36.6400
" />
<path d="M41.2200 50.9400
L38.8900 48.6100
" />
<path d="M38.9800 34.6021
L41.0179 36.6400
" />
<path d="M41.2200 59.1000
L41.2200 50.9400
" />
<path d="M38.8900 48.6100
L38.8900 38.7400
" />
<path d="M38.9800 26.4200
L38.9800 34.6021
" />
<path d="M28.2200 17.0200
L29.5900 17.0200
" />
<path d="M40.9900 36.6400
L42.2200 36.6400
" />
<path d="M41.0179 36.6400
L42.2200 36.6400
" />
<path d="M29.5900 17.0200
L32.1400 14.4700
" />
<path d="M29.5800 17.0200
L38.9800 26.4200
" />
<path d="M25.5900 20.9879
L27.0179 19.5600
" />
<path d="M25.5900 31.4700
L25.5900 20.9879
" />
<path d="M42.2200 32.3579
L42.2200 34.1000
" />
<path d="M34.6800 18.9500
L42.2200 26.4900
" />
<path d="M28.2200 36.6400
L28.2200 34.1000
" />
<path d="M35.2900 19.5600
L42.2200 26.4900
" />
<path d="M42.2200 26.4900
L42.2200 32.3579
" />
<path d="M27.0179 19.5600
L28.2200 19.5600
" />
<path d="M43.4500 34.1000
L42.2200 34.1000
" />
<path d="M34.6800 9.1000
L34.6800 18.9500
" />
<path d="M44.9600 61.9700
L44.9600 35.6100
" />
<path d="M28.2200 34.1000
L25.5900 31.4700
" />
<path d="M42.7500 64.1800
L44.9600 61.9700
" />
<path d="M44.9600 35.6100
L43.4500 34.1000
" />
<path d="M41.2200 64.1800
L42.7500 64.1800
" />
</g>
<g style="fill:none; 
stroke:#4D7FC4; stroke-width:0.1800; stroke-opacity:1; 
stroke-linecap:round; stroke-linejoin:round;">
<path d="M27.3500 63.2600
L37.7600 63.2600
" />
<path d="M26.6300 62.5400
L27.3500 63.2600
" />
<path d="M37.7600 63.2600
L38.6800 64.1800
" />
<path d="M26.6300 61.0900
L26.6300 62.5400
" />
<path d="M28.2200 59.5000
L26.6300 61.0900
" />
<path d="M28.2200 62.0400
L31.1600 59.1000
" />
<path d="M31.1600 59.1000
L38.6800 59.1000
" />
<path d="M39.8810 60.4390
L38.6800 61.6400
" />
<path d="M39.8810 58.6025
L39.8810 60.4390
" />
<path d="M28.2200 56.9600
L38.2385 56.9600
" />
<path d="M38.2385 56.9600
L39.8810 58.6025
" />
<path d="M27.6900 72.1100
L25.6300 70.0500
" />
<path d="M25.6300 70.0500
L25.6300 57.0100
" />
<path d="M38.3700 72.1100
L27.6900 72.1100
" />
<path d="M25.6300 57.0100
L28.2200 54.4200
" />
<path d="M41.2200 69.2600
L38.3700 72.1100
" />
</g>
<g style="fill:none; 
stroke:#4D7FC4; stroke-width:1.0000; stroke-opacity:1; 
stroke-linecap:round; stroke-linejoin:round;">
<path d="M28.2200 39.1800
L29.6000 39.1800
" />
<path d="M31.6800 37.1000
L31.6800 25.5600
" />
<path d="M29.6000 39.1800
L31.6800 37.1000
" />
<path d="M28.2200 39.1800
L28.2200 41.7200
" />
<path d="M31.6800 25.5600
L28.2200 22.1000
" />
<path style="fill:#4D7FC4; fill-opacity:1.0000; stroke:none;fill-rule:evenodd;"
d="M 29.2785,17.7792
30.3392,16.7185
28.3858,16.1863
28.2193,17.0193
28.3858,17.8537
Z" /> 
<path style="fill:#4D7FC4; fill-opacity:1.0000; stroke:none;fill-rule:evenodd;"
d="M 31.3900,10.7837
32.8900,10.7837
32.9737,9.2658
32.1400,9.0990
31.3063,9.2658
Z" /> 
<path style="fill:#4D7FC4; fill-opacity:1.0000; stroke:none;fill-rule:evenodd;"
d="M 41.9700,57.4000
40.4700,57.4000
40.3700,58.2500
41.2200,59.1010
42.0700,58.2500
Z" /> 
<path style="fill:#4D7FC4; fill-opacity:1.0000; stroke:none;fill-rule:evenodd;"
d="M 29.2715,17.7721
30.3321,16.7115
28.3858,16.1863
28.2193,17.0193
28.3858,17.8537
Z" /> 
<path style="fill:#4D7FC4; fill-opacity:1.0000; stroke:none;fill-rule:evenodd;"
d="M 40.1389,36.4305
41.1995,37.4911
42.3858,37.4737
42.2207,36.6393
42.0542,35.8063
Z" /> 
<path style="fill:#4D7FC4; fill-opacity:1.0000; stroke:none;fill-rule:evenodd;"
d="M 41.2077,35.7691
40.1471,36.8298
42.0542,37.4737
42.2207,36.6407
42.3858,35.8063
Z" /> 
<path style="fill:#4D7FC4; fill-opacity:1.0000; stroke:none;fill-rule:evenodd;"
d="M 42.9700,32.4000
41.4700,32.4000
41.3700,33.2500
42.2200,34.1010
43.0700,33.2500
Z" /> 
<path style="fill:#4D7FC4; fill-opacity:1.0000; stroke:none;fill-rule:evenodd;"
d="M 27.4700,35.8000
28.9700,35.8000
29.0700,34.9500
28.2200,34.0990
27.3700,34.9500
Z" /> 
<path style="fill:#4D7FC4; fill-opacity:1.0000; stroke:none;fill-rule:evenodd;"
d="M 28.9700,34.9563
27.4700,34.9563
27.3863,36.4742
28.2200,36.6410
29.0537,36.4742
Z" /> 
<path style="fill:#4D7FC4; fill-opacity:1.0000; stroke:none;fill-rule:evenodd;"
d="M 26.1471,19.3702
27.2077,20.4309
28.3858,20.3937
28.2207,19.5593
28.0542,18.7263
Z" /> 
<path style="fill:#4D7FC4; fill-opacity:1.0000; stroke:none;fill-rule:evenodd;"
d="M 43.2520,34.9627
44.3127,33.9020
43.0700,33.4115
42.2193,34.0993
42.1331,34.9500
Z" /> 
<path style="fill:#4D7FC4; fill-opacity:1.0000; stroke:none;fill-rule:evenodd;"
d="M 33.9300,10.7837
35.4300,10.7837
35.5137,9.2658
34.6800,9.0990
33.8463,9.2658
Z" /> 
<path style="fill:#4D7FC4; fill-opacity:1.0000; stroke:none;fill-rule:evenodd;"
d="M 27.2993,32.1186
26.2386,33.1793
27.3700,34.4521
28.2207,34.1007
28.5721,33.2500
Z" /> 
<path style="fill:#4D7FC4; fill-opacity:1.0000; stroke:none;fill-rule:evenodd;"
d="M 43.3890,64.6017
42.3283,63.5410
41.3858,63.3463
41.2193,64.1807
41.3858,65.0137
Z" /> 
<path style="fill:#4D7FC4; fill-opacity:1.0000; stroke:none;fill-rule:evenodd;"
d="M 37.3774,63.1700
37.3774,63.3500
37.9733,64.6522
38.6810,64.1800
38.8458,63.3463
Z" /> 
<path style="fill:#4D7FC4; fill-opacity:1.0000; stroke:none;fill-rule:evenodd;"
d="M 26.9658,60.6269
27.0931,60.7542
28.3858,60.3337
28.2207,59.4993
27.3863,59.3342
Z" /> 
<path style="fill:#4D7FC4; fill-opacity:1.0000; stroke:none;fill-rule:evenodd;"
d="M 29.4742,60.9131
29.3469,60.7858
28.0542,61.2063
28.2193,62.0407
29.0537,62.2058
Z" /> 
<path style="fill:#4D7FC4; fill-opacity:1.0000; stroke:none;fill-rule:evenodd;"
d="M 36.9963,59.0100
36.9963,59.1900
38.2078,59.8067
38.6810,59.1000
38.2078,58.3932
Z" /> 
<path style="fill:#4D7FC4; fill-opacity:1.0000; stroke:none;fill-rule:evenodd;"
d="M 39.9342,60.5131
39.8069,60.3858
38.5142,60.8063
38.6793,61.6407
39.5137,61.8058
Z" /> 
<path style="fill:#4D7FC4; fill-opacity:1.0000; stroke:none;fill-rule:evenodd;"
d="M 29.9037,57.0500
29.9037,56.8700
28.6922,56.2532
28.2190,56.9600
28.6922,57.6667
Z" /> 
<path style="fill:#4D7FC4; fill-opacity:1.0000; stroke:none;fill-rule:evenodd;"
d="M 26.9658,55.5469
27.0931,55.6742
28.3858,55.2537
28.2207,54.4193
27.3863,54.2542
Z" /> 
<path style="fill:#4D7FC4; fill-opacity:1.0000; stroke:none;fill-rule:evenodd;"
d="M 39.9658,70.3869
40.0931,70.5142
41.3858,70.0937
41.2207,69.2593
40.3863,69.0942
Z" /> 
<path style="fill:#4D7FC4; fill-opacity:1.0000; stroke:none;fill-rule:evenodd;"
d="M 30.1683,39.3188
29.4612,38.6117
28.3858,38.3463
28.2193,39.1807
28.3858,40.0137
Z" /> 
<path style="fill:#4D7FC4; fill-opacity:1.0000; stroke:none;fill-rule:evenodd;"
d="M 27.7200,40.8637
28.7200,40.8637
29.0537,39.3458
28.2200,39.1790
27.3863,39.3458
Z" /> 
<path style="fill:#4D7FC4; fill-opacity:1.0000; stroke:none;fill-rule:evenodd;"
d="M 28.7200,40.0363
27.7200,40.0363
27.3863,41.5542
28.2200,41.7210
29.0537,41.5542
Z" /> 
<path style="fill:#4D7FC4; fill-opacity:1.0000; stroke:none;fill-rule:evenodd;"
d="M 29.3175,23.9046
30.0246,23.1975
29.0700,21.7479
28.2193,22.0993
27.8679,22.9500
Z" /> 
<path style="fill:#02FFEE; fill-opacity:0.4000; stroke:none;fill-rule:evenodd;"
d="M 27.3700,34.9500
27.3700,33.2500
29.0700,33.2500
29.0700,34.9500
Z" /> 
</g>
<g style="fill:#02FFEE; fill-opacity:0.4000; stroke:none;">
<circle cx="28.2200" cy="36.6400" r="0.8500" /> 
</g>
<g style="fill:#02FFEE; fill-opacity:0.4000; stroke:none;">
<circle cx="28.2200" cy="39.1800" r="0.8500" /> 
</g>
<g style="fill:#02FFEE; fill-opacity:0.4000; stroke:none;">
<circle cx="28.2200" cy="41.7200" r="0.8500" /> 
</g>
<g style="fill:#02FFEE; fill-opacity:0.4000; stroke:none;">
<circle cx="28.2200" cy="44.2600" r="0.8500" /> 
</g>
<g style="fill:#02FFEE; fill-opacity:0.4000; stroke:none;">
<circle cx="28.2200" cy="46.8000" r="0.8500" /> 
</g>
<g style="fill:#02FFEE; fill-opacity:0.4000; stroke:none;">
<circle cx="28.2200" cy="49.3400" r="0.8500" /> 
</g>
<g style="fill:#02FFEE; fill-opacity:0.4000; stroke:none;">
<circle cx="28.2200" cy="51.8800" r="0.8500" /> 
</g>
<g style="fill:#02FFEE; fill-opacity:0.4000; stroke:none;">
<circle cx="28.2200" cy="54.4200" r="0.8500" /> 
</g>
<g style="fill:#02FFEE; fill-opacity:0.4000; stroke:none;">
<circle cx="28.2200" cy="56.9600" r="0.8500" /> 
</g>
<g style="fill:#02FFEE; fill-opacity:0.4000; stroke:none;">
<circle cx="28.2200" cy="59.5000" r="0.8500" /> 
</g>
<g style="fill:#02FFEE; fill-opacity:0.4000; stroke:none;">
<circle cx="28.2200" cy="62.0400" r="0.8500" /> 
</g>
<g style="fill:#02FFEE; fill-opacity:0.4000; stroke:none;">
<circle cx="28.2200" cy="64.5800" r="0.8500" /> 
</g>
<g style="fill:#02FFEE; fill-opacity:0.4000; stroke:none;">
<circle cx="28.2200" cy="67.1200" r="0.8500" /> 
</g>
<g style="fill:#02FFEE; fill-opacity:0.4000; stroke:none;">
<circle cx="28.2200" cy="69.6600" r="0.8500" /> 
<path style="fill:#02FFEE; fill-opacity:0.4000; stroke:none;fill-rule:evenodd;"
d="M 29.0700,21.2500
29.0700,22.9500
27.3700,22.9500
27.3700,21.2500
Z" /> 
</g>
<g style="fill:#02FFEE; fill-opacity:0.4000; stroke:none;">
<circle cx="28.2200" cy="19.5600" r="0.8500" /> 
</g>
<g style="fill:#02FFEE; fill-opacity:0.4000; stroke:none;">
<circle cx="28.2200" cy="17.0200" r="0.8500" /> 
<path style="fill:#02FFEE; fill-opacity:0.4000; stroke:none;fill-rule:evenodd;"
d="M 41.3700,34.9500
41.3700,33.2500
43.0700,33.2500
43.0700,34.9500
Z" /> 
</g>
<g style="fill:#02FFEE; fill-opacity:0.4000; stroke:none;">
<circle cx="42.2200" cy="36.6400" r="0.8500" /> 
</g>
<g style="fill:#02FFEE; fill-opacity:0.4000; stroke:none;">
<circle cx="42.2200" cy="39.1800" r="0.8500" /> 
</g>
<g style="fill:#02FFEE; fill-opacity:0.4000; stroke:none;">
<circle cx="42.2200" cy="41.7200" r="0.8500" /> 
</g>
<g style="fill:#02FFEE; fill-opacity:0.4000; stroke:none;">
<circle cx="42.2200" cy="44.2600" r="0.8500" /> 
</g>
<g style="fill:#02FFEE; fill-opacity:0.4000; stroke:none;">
<circle cx="42.2200" cy="46.8000" r="0.8500" /> 
<path style="fill:#02FFEE; fill-opacity:0.4000; stroke:none;fill-rule:evenodd;"
d="M 36.3700,8.2500
38.0700,8.2500
38.0700,9.9500
36.3700,9.9500
Z" /> 
</g>
<g style="fill:#02FFEE; fill-opacity:0.4000; stroke:none;">
<circle cx="34.6800" cy="9.1000" r="0.8500" /> 
</g>
<g style="fill:#02FFEE; fill-opacity:0.4000; stroke:none;">
<circle cx="32.1400" cy="9.1000" r="0.8500" /> 
<path style="fill:#02FFEE; fill-opacity:0.4000; stroke:none;fill-rule:evenodd;"
d="M 42.0700,58.2500
42.0700,59.9500
40.3700,59.9500
40.3700,58.2500
Z" /> 
</g>
<g style="fill:#02FFEE; fill-opacity:0.4000; stroke:none;">
<circle cx="38.6800" cy="59.1000" r="0.8500" /> 
</g>
<g style="fill:#02FFEE; fill-opacity:0.4000; stroke:none;">
<circle cx="41.2200" cy="61.6400" r="0.8500" /> 
</g>
<g style="fill:#02FFEE; fill-opacity:0.4000; stroke:none;">
<circle cx="38.6800" cy="61.6400" r="0.8500" /> 
</g>
<g style="fill:#02FFEE; fill-opacity:0.4000; stroke:none;">
<circle cx="41.2200" cy="64.1800" r="0.8500" /> 
</g>
<g style="fill:#02FFEE; fill-opacity:0.4000; stroke:none;">
<circle cx="38.6800" cy="64.1800" r="0.8500" /> 
</g>
<g style="fill:#02FFEE; fill-opacity:0.4000; stroke:none;">
<circle cx="41.2200" cy="66.7200" r="0.8500" /> 
</g>
<g style="fill:#02FFEE; fill-opacity:0.4000; stroke:none;">
<circle cx="38.6800" cy="66.7200" r="0.8500" /> 
</g>
<g style="fill:#02FFEE; fill-opacity:0.4000; stroke:none;">
<circle cx="41.2200" cy="69.2600" r="0.8500" /> 
</g>
<g style="fill:#02FFEE; fill-opacity:0.4000; stroke:none;">
<circle cx="38.6800" cy="69.2600" r="0.8500" /> 
</g>
<g style="fill:none; 
stroke:#E8B2A7; stroke-width:0.1500; stroke-opacity:1; 
stroke-linecap:round; stroke-linejoin:round;">
<text x="39.9500" y="57.2200"
transform="scale(-1 1) translate(-79.900000 0)"
textLength="1.9643" font-size="1.3333" lengthAdjust="spacingAndGlyphs"
text-anchor="middle" opacity="0" stroke-opacity="0">J9</text>
<g class="stroked-text"><desc>J9</desc>
<path d="M40.2833 56.1748
L40.2833 56.8891
" />
<path d="M40.2833 56.8891
L40.3310 57.0320
" />
<path d="M40.3310 57.0320
L40.4262 57.1272
" />
<path d="M40.4262 57.1272
L40.5690 57.1748
" />
<path d="M40.5690 57.1748
L40.6643 57.1748
" />
<path d="M39.7595 57.1748
L39.5690 57.1748
" />
<path d="M39.5690 57.1748
L39.4738 57.1272
" />
<path d="M39.4738 57.1272
L39.4262 57.0796
" />
<path d="M39.4262 57.0796
L39.3310 56.9367
" />
<path d="M39.3310 56.9367
L39.2833 56.7462
" />
<path d="M39.2833 56.7462
L39.2833 56.3653
" />
<path d="M39.2833 56.3653
L39.3310 56.2701
" />
<path d="M39.3310 56.2701
L39.3786 56.2224
" />
<path d="M39.3786 56.2224
L39.4738 56.1748
" />
<path d="M39.4738 56.1748
L39.6643 56.1748
" />
<path d="M39.6643 56.1748
L39.7595 56.2224
" />
<path d="M39.7595 56.2224
L39.8071 56.2701
" />
<path d="M39.8071 56.2701
L39.8548 56.3653
" />
<path d="M39.8548 56.3653
L39.8548 56.6034
" />
<path d="M39.8548 56.6034
L39.8071 56.6986
" />
<path d="M39.8071 56.6986
L39.7595 56.7462
" />
<path d="M39.7595 56.7462
L39.6643 56.7939
" />
<path d="M39.6643 56.7939
L39.4738 56.7939
" />
<path d="M39.4738 56.7939
L39.3786 56.7462
" />
<path d="M39.3786 56.7462
L39.3310 56.6986
" />
<path d="M39.3310 56.6986
L39.2833 56.6034
" />
</g></g>
<g style="fill:none; 
stroke:#E8B2A7; stroke-width:0.1200; stroke-opacity:1; 
stroke-linecap:round; stroke-linejoin:round;">
<path d="M37.3000 57.7200
L37.3000 70.6400
" />
<path d="M39.9500 57.7200
L37.3000 57.7200
" />
<path d="M39.9500 60.3700
L39.9500 57.7200
" />
<path d="M42.6000 57.7200
L41.2200 57.7200
" />
<path d="M42.6000 59.1000
L42.6000 57.7200
" />
<path d="M42.6000 60.3700
L39.9500 60.3700
" />
<path d="M42.6000 60.3700
L42.6000 70.6400
" />
<path d="M42.6000 70.6400
L37.3000 70.6400
" />
<path style="fill:#C83434; fill-opacity:1.0000; stroke:none;fill-rule:evenodd;"
d="M 27.3700,34.9500
27.3700,33.2500
29.0700,33.2500
29.0700,34.9500
Z" /> 
</g>
<g style="fill:#C83434; fill-opacity:1.0000; stroke:none;">
<circle cx="28.2200" cy="36.6400" r="0.8500" /> 
</g>
<g style="fill:#C83434; fill-opacity:1.0000; stroke:none;">
<circle cx="28.2200" cy="39.1800" r="0.8500" /> 
</g>
<g style="fill:#C83434; fill-opacity:1.0000; stroke:none;">
<circle cx="28.2200" cy="41.7200" r="0.8500" /> 
</g>
<g style="fill:#C83434; fill-opacity:1.0000; stroke:none;">
<circle cx="28.2200" cy="44.2600" r="0.8500" /> 
</g>
<g style="fill:#C83434; fill-opacity:1.0000; stroke:none;">
<circle cx="28.2200" cy="46.8000" r="0.8500" /> 
</g>
<g style="fill:#C83434; fill-opacity:1.0000; stroke:none;">
<circle cx="28.2200" cy="49.3400" r="0.8500" /> 
</g>
<g style="fill:#C83434; fill-opacity:1.0000; stroke:none;">
<circle cx="28.2200" cy="51.8800" r="0.8500" /> 
</g>
<g style="fill:#C83434; fill-opacity:1.0000; stroke:none;">
<circle cx="28.2200" cy="54.4200" r="0.8500" /> 
</g>
<g style="fill:#C83434; fill-opacity:1.0000; stroke:none;">
<circle cx="28.2200" cy="56.9600" r="0.8500" /> 
</g>
<g style="fill:#C83434; fill-opacity:1.0000; stroke:none;">
<circle cx="28.2200" cy="59.5000" r="0.8500" /> 
</g>
<g style="fill:#C83434; fill-opacity:1.0000; stroke:none;">
<circle cx="28.2200" cy="62.0400" r="0.8500" /> 
</g>
<g style="fill:#C83434; fill-opacity:1.0000; stroke:none;">
<circle cx="28.2200" cy="64.5800" r="0.8500" /> 
</g>
<g style="fill:#C83434; fill-opacity:1.0000; stroke:none;">
<circle cx="28.2200" cy="67.1200" r="0.8500" /> 
</g>
<g style="fill:#C83434; fill-opacity:1.0000; stroke:none;">
<circle cx="28.2200" cy="69.6600" r="0.8500" /> 
<path style="fill:#C83434; fill-opacity:1.0000; stroke:none;fill-rule:evenodd;"
d="M 29.0700,21.2500
29.0700,22.9500
27.3700,22.9500
27.3700,21.2500
Z" /> 
</g>
<g style="fill:#C83434; fill-opacity:1.0000; stroke:none;">
<circle cx="28.2200" cy="19.5600" r="0.8500" /> 
</g>
<g style="fill:#C83434; fill-opacity:1.0000; stroke:none;">
<circle cx="28.2200" cy="17.0200" r="0.8500" /> 
<path style="fill:#C83434; fill-opacity:1.0000; stroke:none;fill-rule:evenodd;"
d="M 41.3700,34.9500
41.3700,33.2500
43.0700,33.2500
43.0700,34.9500
Z" /> 
</g>
<g style="fill:#C83434; fill-opacity:1.0000; stroke:none;">
<circle cx="42.2200" cy="36.6400" r="0.8500" /> 
</g>
<g style="fill:#C83434; fill-opacity:1.0000; stroke:none;">
<circle cx="42.2200" cy="39.1800" r="0.8500" /> 
</g>
<g style="fill:#C83434; fill-opacity:1.0000; stroke:none;">
<circle cx="42.2200" cy="41.7200" r="0.8500" /> 
</g>
<g style="fill:#C83434; fill-opacity:1.0000; stroke:none;">
<circle cx="42.2200" cy="44.2600" r="0.8500" /> 
</g>
<g style="fill:#C83434; fill-opacity:1.0000; stroke:none;">
<circle cx="42.2200" cy="46.8000" r="0.8500" /> 
<path style="fill:#C83434; fill-opacity:1.0000; stroke:none;fill-rule:evenodd;"
d="M 36.3700,8.2500
38.0700,8.2500
38.0700,9.9500
36.3700,9.9500
Z" /> 
</g>
<g style="fill:#C83434; fill-opacity:1.0000; stroke:none;">
<circle cx="34.6800" cy="9.1000" r="0.8500" /> 
</g>
<g style="fill:#C83434; fill-opacity:1.0000; stroke:none;">
<circle cx="32.1400" cy="9.1000" r="0.8500" /> 
<path style="fill:#C83434; fill-opacity:1.0000; stroke:none;fill-rule:evenodd;"
d="M 42.0700,58.2500
42.0700,59.9500
40.3700,59.9500
40.3700,58.2500
Z" /> 
</g>
<g style="fill:#C83434; fill-opacity:1.0000; stroke:none;">
<circle cx="38.6800" cy="59.1000" r="0.8500" /> 
</g>
<g style="fill:#C83434; fill-opacity:1.0000; stroke:none;">
<circle cx="41.2200" cy="61.6400" r="0.8500" /> 
</g>
<g style="fill:#C83434; fill-opacity:1.0000; stroke:none;">
<circle cx="38.6800" cy="61.6400" r="0.8500" /> 
</g>
<g style="fill:#C83434; fill-opacity:1.0000; stroke:none;">
<circle cx="41.2200" cy="64.1800" r="0.8500" /> 
</g>
<g style="fill:#C83434; fill-opacity:1.0000; stroke:none;">
<circle cx="38.6800" cy="64.1800" r="0.8500" /> 
</g>
<g style="fill:#C83434; fill-opacity:1.0000; stroke:none;">
<circle cx="41.2200" cy="66.7200" r="0.8500" /> 
</g>
<g style="fill:#C83434; fill-opacity:1.0000; stroke:none;">
<circle cx="38.6800" cy="66.7200" r="0.8500" /> 
</g>
<g style="fill:#C83434; fill-opacity:1.0000; stroke:none;">
<circle cx="41.2200" cy="69.2600" r="0.8500" /> 
</g>
<g style="fill:#C83434; fill-opacity:1.0000; stroke:none;">
<circle cx="38.6800" cy="69.2600" r="0.8500" /> 
</g>
<g style="fill:none; 
stroke:#C83434; stroke-width:1.5000; stroke-opacity:1; 
stroke-linecap:round; stroke-linejoin:round;">
<path d="M29.5500 19.5600
L34.6800 14.4300
" />
<path d="M28.2200 19.5600
L29.5500 19.5600
" />
<path d="M34.6800 14.4300
L34.6800 9.1000
" />
<path d="M43.5300 39.1800
L42.2200 39.1800
" />
<path d="M45.0000 37.7100
L43.5300 39.1800
" />
<path d="M45.0000 16.8800
L45.0000 37.7100
" />
<path d="M37.2200 9.1000
L45.0000 16.8800
" />
</g>
<g style="fill:none; 
stroke:#C83434; stroke-width:0.3000; stroke-opacity:1; 
stroke-linecap:round; stroke-linejoin:round;">
<path d="M41.9100 71.9000
L35.5400 71.9000
" />
<path d="M42.2200 41.7200
L44.9810 44.4810
" />
<path d="M44.9810 44.4810
L44.9810 68.8290
" />
<path d="M44.9810 68.8290
L41.9100 71.9000
" />
<path d="M35.5400 71.9000
L28.2200 64.5800
" />
</g>
<g style="fill:none; 
stroke:#C83434; stroke-width:0.1800; stroke-opacity:1; 
stroke-linecap:round; stroke-linejoin:round;">
<path d="M28.2200 49.3400
L34.2200 55.3400
" />
<path d="M34.2200 64.8000
L38.6800 69.2600
" />
<path d="M34.2200 55.3400
L34.2200 64.8000
" />
</g>
<g style="fill:none; 
stroke:#C83434; stroke-width:1.0000; stroke-opacity:1; 
stroke-linecap:round; stroke-linejoin:round;">
<path d="M43.7200 60.7500
L42.8300 61.6400
" />
<path d="M43.7200 55.9100
L43.7200 60.7500
" />
<path d="M42.8300 61.6400
L41.2200 61.6400
" />
<path d="M29.5300 41.7200
L43.7200 55.9100
" />
<path d="M28.2200 41.7200
L29.5300 41.7200
" />
</g>
<g style="fill:none; 
stroke:#C83434; stroke-width:0.1800; stroke-opacity:1; 
stroke-linecap:round; stroke-linejoin:round;">
<path d="M32.6600 56.3200
L32.6600 65.4400
" />
<path d="M39.8810 70.0990
L39.8810 67.9210
" />
<path d="M39.8810 67.9210
L38.6800 66.7200
" />
<path d="M37.9300 70.7100
L39.2700 70.7100
" />
<path d="M32.6600 65.4400
L37.9300 70.7100
" />
<path d="M28.2200 51.8800
L32.6600 56.3200
" />
<path d="M39.2700 70.7100
L39.8810 70.0990
" />
<path style="fill:#C83434; fill-opacity:1.0000; stroke:none;fill-rule:evenodd;"
d="M 30.3304,19.8402
29.2698,18.7796
28.3858,18.7263
28.2193,19.5607
28.3858,20.3937
Z" /> 
<path style="fill:#C83434; fill-opacity:1.0000; stroke:none;fill-rule:evenodd;"
d="M 33.9300,10.7837
35.4300,10.7837
35.5137,9.2658
34.6800,9.0990
33.8463,9.2658
Z" /> 
<path style="fill:#C83434; fill-opacity:1.0000; stroke:none;fill-rule:evenodd;"
d="M 44.3246,39.4461
43.2639,38.3854
42.3858,38.3463
42.2193,39.1807
42.3858,40.0137
Z" /> 
<path style="fill:#C83434; fill-opacity:1.0000; stroke:none;fill-rule:evenodd;"
d="M 38.1407,11.0814
39.2014,10.0207
38.0700,8.7479
37.2193,9.0993
36.8679,9.9500
Z" /> 
<path style="fill:#C83434; fill-opacity:1.0000; stroke:none;fill-rule:evenodd;"
d="M 43.3045,43.0166
43.5166,42.8045
43.0537,41.5542
42.2193,41.7193
42.0542,42.5537
Z" /> 
<path style="fill:#C83434; fill-opacity:1.0000; stroke:none;fill-rule:evenodd;"
d="M 29.3045,65.8766
29.5166,65.6645
29.0537,64.4142
28.2193,64.5793
28.0542,65.4137
Z" /> 
<path style="fill:#C83434; fill-opacity:1.0000; stroke:none;fill-rule:evenodd;"
d="M 29.3469,50.5942
29.4742,50.4669
29.0537,49.1742
28.2193,49.3393
28.0542,50.1737
Z" /> 
<path style="fill:#C83434; fill-opacity:1.0000; stroke:none;fill-rule:evenodd;"
d="M 37.5531,68.0058
37.4258,68.1331
37.8463,69.4258
38.6807,69.2607
38.8458,68.4263
Z" /> 
<path style="fill:#C83434; fill-opacity:1.0000; stroke:none;fill-rule:evenodd;"
d="M 43.2356,61.9415
42.5285,61.2344
41.3858,60.8063
41.2193,61.6407
41.3858,62.4737
Z" /> 
<path style="fill:#C83434; fill-opacity:1.0000; stroke:none;fill-rule:evenodd;"
d="M 29.4407,42.3378
30.1478,41.6307
28.6922,41.0132
28.2193,41.7193
28.3858,42.5537
Z" /> 
<path style="fill:#C83434; fill-opacity:1.0000; stroke:none;fill-rule:evenodd;"
d="M 39.8069,67.9742
39.9342,67.8469
39.5137,66.5542
38.6793,66.7193
38.5142,67.5537
Z" /> 
<path style="fill:#C83434; fill-opacity:1.0000; stroke:none;fill-rule:evenodd;"
d="M 29.3469,53.1342
29.4742,53.0069
29.0537,51.7142
28.2193,51.8793
28.0542,52.7137
Z" /> 
<path style="fill:#D864FF; fill-opacity:0.4000; stroke:none;fill-rule:evenodd;"
d="M 27.3700,34.9500
27.3700,33.2500
29.0700,33.2500
29.0700,34.9500
Z" /> 
</g>
<g style="fill:#D864FF; fill-opacity:0.4000; stroke:none;">
<circle cx="28.2200" cy="36.6400" r="0.8500" /> 
</g>
<g style="fill:#D864FF; fill-opacity:0.4000; stroke:none;">
<circle cx="28.2200" cy="39.1800" r="0.8500" /> 
</g>
<g style="fill:#D864FF; fill-opacity:0.4000; stroke:none;">
<circle cx="28.2200" cy="41.7200" r="0.8500" /> 
</g>
<g style="fill:#D864FF; fill-opacity:0.4000; stroke:none;">
<circle cx="28.2200" cy="44.2600" r="0.8500" /> 
</g>
<g style="fill:#D864FF; fill-opacity:0.4000; stroke:none;">
<circle cx="28.2200" cy="46.8000" r="0.8500" /> 
</g>
<g style="fill:#D864FF; fill-opacity:0.4000; stroke:none;">
<circle cx="28.2200" cy="49.3400" r="0.8500" /> 
</g>
<g style="fill:#D864FF; fill-opacity:0.4000; stroke:none;">
<circle cx="28.2200" cy="51.8800" r="0.8500" /> 
</g>
<g style="fill:#D864FF; fill-opacity:0.4000; stroke:none;">
<circle cx="28.2200" cy="54.4200" r="0.8500" /> 
</g>
<g style="fill:#D864FF; fill-opacity:0.4000; stroke:none;">
<circle cx="28.2200" cy="56.9600" r="0.8500" /> 
</g>
<g style="fill:#D864FF; fill-opacity:0.4000; stroke:none;">
<circle cx="28.2200" cy="59.5000" r="0.8500" /> 
</g>
<g style="fill:#D864FF; fill-opacity:0.4000; stroke:none;">
<circle cx="28.2200" cy="62.0400" r="0.8500" /> 
</g>
<g style="fill:#D864FF; fill-opacity:0.4000; stroke:none;">
<circle cx="28.2200" cy="64.5800" r="0.8500" /> 
</g>
<g style="fill:#D864FF; fill-opacity:0.4000; stroke:none;">
<circle cx="28.2200" cy="67.1200" r="0.8500" /> 
</g>
<g style="fill:#D864FF; fill-opacity:0.4000; stroke:none;">
<circle cx="28.2200" cy="69.6600" r="0.8500" /> 
<path style="fill:#D864FF; fill-opacity:0.4000; stroke:none;fill-rule:evenodd;"
d="M 29.0700,21.2500
29.0700,22.9500
27.3700,22.9500
27.3700,21.2500
Z" /> 
</g>
<g style="fill:#D864FF; fill-opacity:0.4000; stroke:none;">
<circle cx="28.2200" cy="19.5600" r="0.8500" /> 
</g>
<g style="fill:#D864FF; fill-opacity:0.4000; stroke:none;">
<circle cx="28.2200" cy="17.0200" r="0.8500" /> 
<path style="fill:#D864FF; fill-opacity:0.4000; stroke:none;fill-rule:evenodd;"
d="M 41.3700,34.9500
41.3700,33.2500
43.0700,33.2500
43.0700,34.9500
Z" /> 
</g>
<g style="fill:#D864FF; fill-opacity:0.4000; stroke:none;">
<circle cx="42.2200" cy="36.6400" r="0.8500" /> 
</g>
<g style="fill:#D864FF; fill-opacity:0.4000; stroke:none;">
<circle cx="42.2200" cy="39.1800" r="0.8500" /> 
</g>
<g style="fill:#D864FF; fill-opacity:0.4000; stroke:none;">
<circle cx="42.2200" cy="41.7200" r="0.8500" /> 
</g>
<g style="fill:#D864FF; fill-opacity:0.4000; stroke:none;">
<circle cx="42.2200" cy="44.2600" r="0.8500" /> 
</g>
<g style="fill:#D864FF; fill-opacity:0.4000; stroke:none;">
<circle cx="42.2200" cy="46.8000" r="0.8500" /> 
<path style="fill:#D864FF; fill-opacity:0.4000; stroke:none;fill-rule:evenodd;"
d="M 36.3700,8.2500
38.0700,8.2500
38.0700,9.9500
36.3700,9.9500
Z" /> 
</g>
<g style="fill:#D864FF; fill-opacity:0.4000; stroke:none;">
<circle cx="34.6800" cy="9.1000" r="0.8500" /> 
</g>
<g style="fill:#D864FF; fill-opacity:0.4000; stroke:none;">
<circle cx="32.1400" cy="9.1000" r="0.8500" /> 
<path style="fill:#D864FF; fill-opacity:0.4000; stroke:none;fill-rule:evenodd;"
d="M 42.0700,58.2500
42.0700,59.9500
40.3700,59.9500
40.3700,58.2500
Z" /> 
</g>
<g style="fill:#D864FF; fill-opacity:0.4000; stroke:none;">
<circle cx="38.6800" cy="59.1000" r="0.8500" /> 
</g>
<g style="fill:#D864FF; fill-opacity:0.4000; stroke:none;">
<circle cx="41.2200" cy="61.6400" r="0.8500" /> 
</g>
<g style="fill:#D864FF; fill-opacity:0.4000; stroke:none;">
<circle cx="38.6800" cy="61.6400" r="0.8500" /> 
</g>
<g style="fill:#D864FF; fill-opacity:0.4000; stroke:none;">
<circle cx="41.2200" cy="64.1800" r="0.8500" /> 
</g>
<g style="fill:#D864FF; fill-opacity:0.4000; stroke:none;">
<circle cx="38.6800" cy="64.1800" r="0.8500" /> 
</g>
<g style="fill:#D864FF; fill-opacity:0.4000; stroke:none;">
<circle cx="41.2200" cy="66.7200" r="0.8500" /> 
</g>
<g style="fill:#D864FF; fill-opacity:0.4000; stroke:none;">
<circle cx="38.6800" cy="66.7200" r="0.8500" /> 
</g>
<g style="fill:#D864FF; fill-opacity:0.4000; stroke:none;">
<circle cx="41.2200" cy="69.2600" r="0.8500" /> 
</g>
<g style="fill:#D864FF; fill-opacity:0.4000; stroke:none;">
<circle cx="38.6800" cy="69.2600" r="0.8500" /> 
</g>
<g style="fill:none; 
stroke:#F2EDA1; stroke-width:0.1200; stroke-opacity:1; 
stroke-linecap:round; stroke-linejoin:round;">
<text x="38.2200" y="34.1000"
textLength="2.3533" font-size="0.9333" lengthAdjust="spacingAndGlyphs"
text-anchor="start" opacity="0" stroke-opacity="0">GND</text>
<g class="stroked-text"><desc>GND</desc>
<path d="M38.8323 33.3414
L38.7656 33.3081
" />
<path d="M38.7656 33.3081
L38.6656 33.3081
" />
<path d="M38.6656 33.3081
L38.5656 33.3414
" />
<path d="M38.5656 33.3414
L38.4989 33.4081
" />
<path d="M38.4989 33.4081
L38.4656 33.4748
" />
<path d="M38.4656 33.4748
L38.4323 33.6081
" />
<path d="M38.4323 33.6081
L38.4323 33.7081
" />
<path d="M38.4323 33.7081
L38.4656 33.8414
" />
<path d="M38.4656 33.8414
L38.4989 33.9081
" />
<path d="M38.4989 33.9081
L38.5656 33.9748
" />
<path d="M38.5656 33.9748
L38.6656 34.0081
" />
<path d="M38.6656 34.0081
L38.7323 34.0081
" />
<path d="M38.7323 34.0081
L38.8323 33.9748
" />
<path d="M38.8323 33.9748
L38.8656 33.9414
" />
<path d="M38.8656 33.9414
L38.8656 33.7081
" />
<path d="M38.8656 33.7081
L38.7323 33.7081
" />
<path d="M39.1656 34.0081
L39.1656 33.3081
" />
<path d="M39.1656 33.3081
L39.5656 34.0081
" />
<path d="M39.5656 34.0081
L39.5656 33.3081
" />
<path d="M39.8989 34.0081
L39.8989 33.3081
" />
<path d="M39.8989 33.3081
L40.0656 33.3081
" />
<path d="M40.0656 33.3081
L40.1656 33.3414
" />
<path d="M40.1656 33.3414
L40.2323 33.4081
" />
<path d="M40.2323 33.4081
L40.2656 33.4748
" />
<path d="M40.2656 33.4748
L40.2989 33.6081
" />
<path d="M40.2989 33.6081
L40.2989 33.7081
" />
<path d="M40.2989 33.7081
L40.2656 33.8414
" />
<path d="M40.2656 33.8414
L40.2323 33.9081
" />
<path d="M40.2323 33.9081
L40.1656 33.9748
" />
<path d="M40.1656 33.9748
L40.0656 34.0081
" />
<path d="M40.0656 34.0081
L39.8989 34.0081
" />
</g><text x="36.3000" y="12.1000"
textLength="2.1533" font-size="0.9333" lengthAdjust="spacingAndGlyphs"
text-anchor="start" opacity="0" stroke-opacity="0">24V</text>
<g class="stroked-text"><desc>24V</desc>
<path d="M36.5123 11.3748
L36.5456 11.3414
" />
<path d="M36.5456 11.3414
L36.6123 11.3081
" />
<path d="M36.6123 11.3081
L36.7789 11.3081
" />
<path d="M36.7789 11.3081
L36.8456 11.3414
" />
<path d="M36.8456 11.3414
L36.8789 11.3748
" />
<path d="M36.8789 11.3748
L36.9123 11.4414
" />
<path d="M36.9123 11.4414
L36.9123 11.5081
" />
<path d="M36.9123 11.5081
L36.8789 11.6081
" />
<path d="M36.8789 11.6081
L36.4789 12.0081
" />
<path d="M36.4789 12.0081
L36.9123 12.0081
" />
<path d="M37.5123 11.5414
L37.5123 12.0081
" />
<path d="M37.3456 11.2748
L37.1789 11.7748
" />
<path d="M37.1789 11.7748
L37.6123 11.7748
" />
<path d="M37.7789 11.3081
L38.0123 12.0081
" />
<path d="M38.0123 12.0081
L38.2456 11.3081
" />
</g><text x="33.7600" y="12.1000"
textLength="1.4867" font-size="0.9333" lengthAdjust="spacingAndGlyphs"
text-anchor="start" opacity="0" stroke-opacity="0">5V</text>
<g class="stroked-text"><desc>5V</desc>
<path d="M34.3389 11.3081
L34.0056 11.3081
" />
<path d="M34.0056 11.3081
L33.9723 11.6414
" />
<path d="M33.9723 11.6414
L34.0056 11.6081
" />
<path d="M34.0056 11.6081
L34.0723 11.5748
" />
<path d="M34.0723 11.5748
L34.2389 11.5748
" />
<path d="M34.2389 11.5748
L34.3056 11.6081
" />
<path d="M34.3056 11.6081
L34.3389 11.6414
" />
<path d="M34.3389 11.6414
L34.3723 11.7081
" />
<path d="M34.3723 11.7081
L34.3723 11.8748
" />
<path d="M34.3723 11.8748
L34.3389 11.9414
" />
<path d="M34.3389 11.9414
L34.3056 11.9748
" />
<path d="M34.3056 11.9748
L34.2389 12.0081
" />
<path d="M34.2389 12.0081
L34.0723 12.0081
" />
<path d="M34.0723 12.0081
L34.0056 11.9748
" />
<path d="M34.0056 11.9748
L33.9723 11.9414
" />
<path d="M34.5723 11.3081
L34.8056 12.0081
" />
<path d="M34.8056 12.0081
L35.0389 11.3081
" />
</g><text x="43.2200" y="61.6400"
textLength="2.1533" font-size="0.9333" lengthAdjust="spacingAndGlyphs"
text-anchor="start" opacity="0" stroke-opacity="0">3V3</text>
<g class="stroked-text"><desc>3V3</desc>
<path d="M43.3989 60.8481
L43.8323 60.8481
" />
<path d="M43.8323 60.8481
L43.5989 61.1148
" />
<path d="M43.5989 61.1148
L43.6989 61.1148
" />
<path d="M43.6989 61.1148
L43.7656 61.1481
" />
<path d="M43.7656 61.1481
L43.7989 61.1814
" />
<path d="M43.7989 61.1814
L43.8323 61.2481
" />
<path d="M43.8323 61.2481
L43.8323 61.4148
" />
<path d="M43.8323 61.4148
L43.7989 61.4814
" />
<path d="M43.7989 61.4814
L43.7656 61.5148
" />
<path d="M43.7656 61.5148
L43.6989 61.5481
" />
<path d="M43.6989 61.5481
L43.4989 61.5481
" />
<path d="M43.4989 61.5481
L43.4323 61.5148
" />
<path d="M43.4323 61.5148
L43.3989 61.4814
" />
<path d="M44.0323 60.8481
L44.2656 61.5481
" />
<path d="M44.2656 61.5481
L44.4989 60.8481
" />
<path d="M44.6656 60.8481
L45.0989 60.8481
" />
<path d="M45.0989 60.8481
L44.8656 61.1148
" />
<path d="M44.8656 61.1148
L44.9656 61.1148
" />
<path d="M44.9656 61.1148
L45.0323 61.1481
" />
<path d="M45.0323 61.1481
L45.0656 61.1814
" />
<path d="M45.0656 61.1814
L45.0989 61.2481
" />
<path d="M45.0989 61.2481
L45.0989 61.4148
" />
<path d="M45.0989 61.4148
L45.0656 61.4814
" />
<path d="M45.0656 61.4814
L45.0323 61.5148
" />
<path d="M45.0323 61.5148
L44.9656 61.5481
" />
<path d="M44.9656 61.5481
L44.7656 61.5481
" />
<path d="M44.7656 61.5481
L44.6989 61.5148
" />
<path d="M44.6989 61.5148
L44.6656 61.4814
" />
</g><text x="30.2200" y="67.1200"
textLength="2.1867" font-size="0.9333" lengthAdjust="spacingAndGlyphs"
text-anchor="start" opacity="0" stroke-opacity="0">PA3</text>
<g class="stroked-text"><desc>PA3</desc>
<path d="M30.4656 67.0281
L30.4656 66.3281
" />
<path d="M30.4656 66.3281
L30.7323 66.3281
" />
<path d="M30.7323 66.3281
L30.7989 66.3614
" />
<path d="M30.7989 66.3614
L30.8323 66.3948
" />
<path d="M30.8323 66.3948
L30.8656 66.4614
" />
<path d="M30.8656 66.4614
L30.8656 66.5614
" />
<path d="M30.8656 66.5614
L30.8323 66.6281
" />
<path d="M30.8323 66.6281
L30.7989 66.6614
" />
<path d="M30.7989 66.6614
L30.7323 66.6948
" />
<path d="M30.7323 66.6948
L30.4656 66.6948
" />
<path d="M31.1323 66.8281
L31.4656 66.8281
" />
<path d="M31.0656 67.0281
L31.2989 66.3281
" />
<path d="M31.2989 66.3281
L31.5323 67.0281
" />
<path d="M31.6989 66.3281
L32.1323 66.3281
" />
<path d="M32.1323 66.3281
L31.8989 66.5948
" />
<path d="M31.8989 66.5948
L31.9989 66.5948
" />
<path d="M31.9989 66.5948
L32.0656 66.6281
" />
<path d="M32.0656 66.6281
L32.0989 66.6614
" />
<path d="M32.0989 66.6614
L32.1323 66.7281
" />
<path d="M32.1323 66.7281
L32.1323 66.8948
" />
<path d="M32.1323 66.8948
L32.0989 66.9614
" />
<path d="M32.0989 66.9614
L32.0656 66.9948
" />
<path d="M32.0656 66.9948
L31.9989 67.0281
" />
<path d="M31.9989 67.0281
L31.7989 67.0281
" />
<path d="M31.7989 67.0281
L31.7323 66.9948
" />
<path d="M31.7323 66.9948
L31.6989 66.9614
" />
</g><text x="38.2200" y="36.6400"
textLength="1.4867" font-size="0.9333" lengthAdjust="spacingAndGlyphs"
text-anchor="start" opacity="0" stroke-opacity="0">5V</text>
<g class="stroked-text"><desc>5V</desc>
<path d="M38.7989 35.8481
L38.4656 35.8481
" />
<path d="M38.4656 35.8481
L38.4323 36.1814
" />
<path d="M38.4323 36.1814
L38.4656 36.1481
" />
<path d="M38.4656 36.1481
L38.5323 36.1148
" />
<path d="M38.5323 36.1148
L38.6989 36.1148
" />
<path d="M38.6989 36.1148
L38.7656 36.1481
" />
<path d="M38.7656 36.1481
L38.7989 36.1814
" />
<path d="M38.7989 36.1814
L38.8323 36.2481
" />
<path d="M38.8323 36.2481
L38.8323 36.4148
" />
<path d="M38.8323 36.4148
L38.7989 36.4814
" />
<path d="M38.7989 36.4814
L38.7656 36.5148
" />
<path d="M38.7656 36.5148
L38.6989 36.5481
" />
<path d="M38.6989 36.5481
L38.5323 36.5481
" />
<path d="M38.5323 36.5481
L38.4656 36.5148
" />
<path d="M38.4656 36.5148
L38.4323 36.4814
" />
<path d="M39.0323 35.8481
L39.2656 36.5481
" />
<path d="M39.2656 36.5481
L39.4989 35.8481
" />
</g><text x="34.2200" y="61.6400"
textLength="2.1867" font-size="0.9333" lengthAdjust="spacingAndGlyphs"
text-anchor="start" opacity="0" stroke-opacity="0">PA7</text>
<g class="stroked-text"><desc>PA7</desc>
<path d="M34.4656 61.5481
L34.4656 60.8481
" />
<path d="M34.4656 60.8481
L34.7323 60.8481
" />
<path d="M34.7323 60.8481
L34.7989 60.8814
" />
<path d="M34.7989 60.8814
L34.8323 60.9148
" />
<path d="M34.8323 60.9148
L34.8656 60.9814
" />
<path d="M34.8656 60.9814
L34.8656 61.0814
" />
<path d="M34.8656 61.0814
L34.8323 61.1481
" />
<path d="M34.8323 61.1481
L34.7989 61.1814
" />
<path d="M34.7989 61.1814
L34.7323 61.2148
" />
<path d="M34.7323 61.2148
L34.4656 61.2148
" />
<path d="M35.1323 61.3481
L35.4656 61.3481
" />
<path d="M35.0656 61.5481
L35.2989 60.8481
" />
<path d="M35.2989 60.8481
L35.5323 61.5481
" />
<path d="M35.6989 60.8481
L36.1656 60.8481
" />
<path d="M36.1656 60.8481
L35.8656 61.5481
" />
</g><text x="30.2200" y="56.9600"
textLength="2.1867" font-size="0.9333" lengthAdjust="spacingAndGlyphs"
text-anchor="start" opacity="0" stroke-opacity="0">PA7</text>
<g class="stroked-text"><desc>PA7</desc>
<path d="M30.4656 56.8681
L30.4656 56.1681
" />
<path d="M30.4656 56.1681
L30.7323 56.1681
" />
<path d="M30.7323 56.1681
L30.7989 56.2014
" />
<path d="M30.7989 56.2014
L30.8323 56.2348
" />
<path d="M30.8323 56.2348
L30.8656 56.3014
" />
<path d="M30.8656 56.3014
L30.8656 56.4014
" />
<path d="M30.8656 56.4014
L30.8323 56.4681
" />
<path d="M30.8323 56.4681
L30.7989 56.5014
" />
<path d="M30.7989 56.5014
L30.7323 56.5348
" />
<path d="M30.7323 56.5348
L30.4656 56.5348
" />
<path d="M31.1323 56.6681
L31.4656 56.6681
" />
<path d="M31.0656 56.8681
L31.2989 56.1681
" />
<path d="M31.2989 56.1681
L31.5323 56.8681
" />
<path d="M31.6989 56.1681
L32.1656 56.1681
" />
<path d="M32.1656 56.1681
L31.8656 56.8681
" />
</g><text x="30.2200" y="34.1000"
textLength="2.3533" font-size="0.9333" lengthAdjust="spacingAndGlyphs"
text-anchor="start" opacity="0" stroke-opacity="0">GND</text>
<g class="stroked-text"><desc>GND</desc>
<path d="M30.8323 33.3414
L30.7656 33.3081
" />
<path d="M30.7656 33.3081
L30.6656 33.3081
" />
<path d="M30.6656 33.3081
L30.5656 33.3414
" />
<path d="M30.5656 33.3414
L30.4989 33.4081
" />
<path d="M30.4989 33.4081
L30.4656 33.4748
" />
<path d="M30.4656 33.4748
L30.4323 33.6081
" />
<path d="M30.4323 33.6081
L30.4323 33.7081
" />
<path d="M30.4323 33.7081
L30.4656 33.8414
" />
<path d="M30.4656 33.8414
L30.4989 33.9081
" />
<path d="M30.4989 33.9081
L30.5656 33.9748
" />
<path d="M30.5656 33.9748
L30.6656 34.0081
" />
<path d="M30.6656 34.0081
L30.7323 34.0081
" />
<path d="M30.7323 34.0081
L30.8323 33.9748
" />
<path d="M30.8323 33.9748
L30.8656 33.9414
" />
<path d="M30.8656 33.9414
L30.8656 33.7081
" />
<path d="M30.8656 33.7081
L30.7323 33.7081
" />
<path d="M31.1656 34.0081
L31.1656 33.3081
" />
<path d="M31.1656 33.3081
L31.5656 34.0081
" />
<path d="M31.5656 34.0081
L31.5656 33.3081
" />
<path d="M31.8989 34.0081
L31.8989 33.3081
" />
<path d="M31.8989 33.3081
L32.0656 33.3081
" />
<path d="M32.0656 33.3081
L32.1656 33.3414
" />
<path d="M32.1656 33.3414
L32.2323 33.4081
" />
<path d="M32.2323 33.4081
L32.2656 33.4748
" />
<path d="M32.2656 33.4748
L32.2989 33.6081
" />
<path d="M32.2989 33.6081
L32.2989 33.7081
" />
<path d="M32.2989 33.7081
L32.2656 33.8414
" />
<path d="M32.2656 33.8414
L32.2323 33.9081
" />
<path d="M32.2323 33.9081
L32.1656 33.9748
" />
<path d="M32.1656 33.9748
L32.0656 34.0081
" />
<path d="M32.0656 34.0081
L31.8989 34.0081
" />
</g><text x="37.2200" y="46.8000"
textLength="3.3533" font-size="0.9333" lengthAdjust="spacingAndGlyphs"
text-anchor="start" opacity="0" stroke-opacity="0">loop+</text>
<g class="stroked-text"><desc>loop+</desc>
<path d="M37.5656 46.7081
L37.4989 46.6748
" />
<path d="M37.4989 46.6748
L37.4656 46.6081
" />
<path d="M37.4656 46.6081
L37.4656 46.0081
" />
<path d="M37.9323 46.7081
L37.8656 46.6748
" />
<path d="M37.8656 46.6748
L37.8323 46.6414
" />
<path d="M37.8323 46.6414
L37.7989 46.5748
" />
<path d="M37.7989 46.5748
L37.7989 46.3748
" />
<path d="M37.7989 46.3748
L37.8323 46.3081
" />
<path d="M37.8323 46.3081
L37.8656 46.2748
" />
<path d="M37.8656 46.2748
L37.9323 46.2414
" />
<path d="M37.9323 46.2414
L38.0323 46.2414
" />
<path d="M38.0323 46.2414
L38.0989 46.2748
" />
<path d="M38.0989 46.2748
L38.1323 46.3081
" />
<path d="M38.1323 46.3081
L38.1656 46.3748
" />
<path d="M38.1656 46.3748
L38.1656 46.5748
" />
<path d="M38.1656 46.5748
L38.1323 46.6414
" />
<path d="M38.1323 46.6414
L38.0989 46.6748
" />
<path d="M38.0989 46.6748
L38.0323 46.7081
" />
<path d="M38.0323 46.7081
L37.9323 46.7081
" />
<path d="M38.5656 46.7081
L38.4989 46.6748
" />
<path d="M38.4989 46.6748
L38.4656 46.6414
" />
<path d="M38.4656 46.6414
L38.4323 46.5748
" />
<path d="M38.4323 46.5748
L38.4323 46.3748
" />
<path d="M38.4323 46.3748
L38.4656 46.3081
" />
<path d="M38.4656 46.3081
L38.4989 46.2748
" />
<path d="M38.4989 46.2748
L38.5656 46.2414
" />
<path d="M38.5656 46.2414
L38.6656 46.2414
" />
<path d="M38.6656 46.2414
L38.7323 46.2748
" />
<path d="M38.7323 46.2748
L38.7656 46.3081
" />
<path d="M38.7656 46.3081
L38.7989 46.3748
" />
<path d="M38.7989 46.3748
L38.7989 46.5748
" />
<path d="M38.7989 46.5748
L38.7656 46.6414
" />
<path d="M38.7656 46.6414
L38.7323 46.6748
" />
<path d="M38.7323 46.6748
L38.6656 46.7081
" />
<path d="M38.6656 46.7081
L38.5656 46.7081
" />
<path d="M39.0989 46.2414
L39.0989 46.9414
" />
<path d="M39.0989 46.2748
L39.1656 46.2414
" />
<path d="M39.1656 46.2414
L39.2989 46.2414
" />
<path d="M39.2989 46.2414
L39.3656 46.2748
" />
<path d="M39.3656 46.2748
L39.3989 46.3081
" />
<path d="M39.3989 46.3081
L39.4323 46.3748
" />
<path d="M39.4323 46.3748
L39.4323 46.5748
" />
<path d="M39.4323 46.5748
L39.3989 46.6414
" />
<path d="M39.3989 46.6414
L39.3656 46.6748
" />
<path d="M39.3656 46.6748
L39.2989 46.7081
" />
<path d="M39.2989 46.7081
L39.1656 46.7081
" />
<path d="M39.1656 46.7081
L39.0989 46.6748
" />
<path d="M39.7323 46.4414
L40.2656 46.4414
" />
<path d="M39.9989 46.7081
L39.9989 46.1748
" />
</g><text x="30.2200" y="17.1000"
textLength="1.4867" font-size="0.9333" lengthAdjust="spacingAndGlyphs"
text-anchor="start" opacity="0" stroke-opacity="0">5V</text>
<g class="stroked-text"><desc>5V</desc>
<path d="M30.7989 16.3081
L30.4656 16.3081
" />
<path d="M30.4656 16.3081
L30.4323 16.6414
" />
<path d="M30.4323 16.6414
L30.4656 16.6081
" />
<path d="M30.4656 16.6081
L30.5323 16.5748
" />
<path d="M30.5323 16.5748
L30.6989 16.5748
" />
<path d="M30.6989 16.5748
L30.7656 16.6081
" />
<path d="M30.7656 16.6081
L30.7989 16.6414
" />
<path d="M30.7989 16.6414
L30.8323 16.7081
" />
<path d="M30.8323 16.7081
L30.8323 16.8748
" />
<path d="M30.8323 16.8748
L30.7989 16.9414
" />
<path d="M30.7989 16.9414
L30.7656 16.9748
" />
<path d="M30.7656 16.9748
L30.6989 17.0081
" />
<path d="M30.6989 17.0081
L30.5323 17.0081
" />
<path d="M30.5323 17.0081
L30.4656 16.9748
" />
<path d="M30.4656 16.9748
L30.4323 16.9414
" />
<path d="M31.0323 16.3081
L31.2656 17.0081
" />
<path d="M31.2656 17.0081
L31.4989 16.3081
" />
</g><text x="43.2200" y="59.1000"
textLength="1.4867" font-size="0.9333" lengthAdjust="spacingAndGlyphs"
text-anchor="start" opacity="0" stroke-opacity="0">5V</text>
<g class="stroked-text"><desc>5V</desc>
<path d="M43.7989 58.3081
L43.4656 58.3081
" />
<path d="M43.4656 58.3081
L43.4323 58.6414
" />
<path d="M43.4323 58.6414
L43.4656 58.6081
" />
<path d="M43.4656 58.6081
L43.5323 58.5748
" />
<path d="M43.5323 58.5748
L43.6989 58.5748
" />
<path d="M43.6989 58.5748
L43.7656 58.6081
" />
<path d="M43.7656 58.6081
L43.7989 58.6414
" />
<path d="M43.7989 58.6414
L43.8323 58.7081
" />
<path d="M43.8323 58.7081
L43.8323 58.8748
" />
<path d="M43.8323 58.8748
L43.7989 58.9414
" />
<path d="M43.7989 58.9414
L43.7656 58.9748
" />
<path d="M43.7656 58.9748
L43.6989 59.0081
" />
<path d="M43.6989 59.0081
L43.5323 59.0081
" />
<path d="M43.5323 59.0081
L43.4656 58.9748
" />
<path d="M43.4656 58.9748
L43.4323 58.9414
" />
<path d="M44.0323 58.3081
L44.2656 59.0081
" />
<path d="M44.2656 59.0081
L44.4989 58.3081
" />
</g><text x="30.2200" y="49.3400"
textLength="2.4867" font-size="0.9333" lengthAdjust="spacingAndGlyphs"
text-anchor="start" opacity="0" stroke-opacity="0">INT1</text>
<g class="stroked-text"><desc>INT1</desc>
<path d="M30.4656 49.2481
L30.4656 48.5481
" />
<path d="M30.7989 49.2481
L30.7989 48.5481
" />
<path d="M30.7989 48.5481
L31.1989 49.2481
" />
<path d="M31.1989 49.2481
L31.1989 48.5481
" />
<path d="M31.4323 48.5481
L31.8323 48.5481
" />
<path d="M31.6323 49.2481
L31.6323 48.5481
" />
<path d="M32.4323 49.2481
L32.0323 49.2481
" />
<path d="M32.2323 49.2481
L32.2323 48.5481
" />
<path d="M32.2323 48.5481
L32.1656 48.6481
" />
<path d="M32.1656 48.6481
L32.0989 48.7148
" />
<path d="M32.0989 48.7148
L32.0323 48.7481
" />
</g><text x="30.2200" y="39.1800"
textLength="2.1533" font-size="0.9333" lengthAdjust="spacingAndGlyphs"
text-anchor="start" opacity="0" stroke-opacity="0">3V3</text>
<g class="stroked-text"><desc>3V3</desc>
<path d="M30.3989 38.3881
L30.8323 38.3881
" />
<path d="M30.8323 38.3881
L30.5989 38.6548
" />
<path d="M30.5989 38.6548
L30.6989 38.6548
" />
<path d="M30.6989 38.6548
L30.7656 38.6881
" />
<path d="M30.7656 38.6881
L30.7989 38.7214
" />
<path d="M30.7989 38.7214
L30.8323 38.7881
" />
<path d="M30.8323 38.7881
L30.8323 38.9548
" />
<path d="M30.8323 38.9548
L30.7989 39.0214
" />
<path d="M30.7989 39.0214
L30.7656 39.0548
" />
<path d="M30.7656 39.0548
L30.6989 39.0881
" />
<path d="M30.6989 39.0881
L30.4989 39.0881
" />
<path d="M30.4989 39.0881
L30.4323 39.0548
" />
<path d="M30.4323 39.0548
L30.3989 39.0214
" />
<path d="M31.0323 38.3881
L31.2656 39.0881
" />
<path d="M31.2656 39.0881
L31.4989 38.3881
" />
<path d="M31.6656 38.3881
L32.0989 38.3881
" />
<path d="M32.0989 38.3881
L31.8656 38.6548
" />
<path d="M31.8656 38.6548
L31.9656 38.6548
" />
<path d="M31.9656 38.6548
L32.0323 38.6881
" />
<path d="M32.0323 38.6881
L32.0656 38.7214
" />
<path d="M32.0656 38.7214
L32.0989 38.7881
" />
<path d="M32.0989 38.7881
L32.0989 38.9548
" />
<path d="M32.0989 38.9548
L32.0656 39.0214
" />
<path d="M32.0656 39.0214
L32.0323 39.0548
" />
<path d="M32.0323 39.0548
L31.9656 39.0881
" />
<path d="M31.9656 39.0881
L31.7656 39.0881
" />
<path d="M31.7656 39.0881
L31.6989 39.0548
" />
<path d="M31.6989 39.0548
L31.6656 39.0214
" />
</g><text x="30.2200" y="36.6400"
textLength="2.3533" font-size="0.9333" lengthAdjust="spacingAndGlyphs"
text-anchor="start" opacity="0" stroke-opacity="0">GND</text>
<g class="stroked-text"><desc>GND</desc>
<path d="M30.8323 35.8814
L30.7656 35.8481
" />
<path d="M30.7656 35.8481
L30.6656 35.8481
" />
<path d="M30.6656 35.8481
L30.5656 35.8814
" />
<path d="M30.5656 35.8814
L30.4989 35.9481
" />
<path d="M30.4989 35.9481
L30.4656 36.0148
" />
<path d="M30.4656 36.0148
L30.4323 36.1481
" />
<path d="M30.4323 36.1481
L30.4323 36.2481
" />
<path d="M30.4323 36.2481
L30.4656 36.3814
" />
<path d="M30.4656 36.3814
L30.4989 36.4481
" />
<path d="M30.4989 36.4481
L30.5656 36.5148
" />
<path d="M30.5656 36.5148
L30.6656 36.5481
" />
<path d="M30.6656 36.5481
L30.7323 36.5481
" />
<path d="M30.7323 36.5481
L30.8323 36.5148
" />
<path d="M30.8323 36.5148
L30.8656 36.4814
" />
<path d="M30.8656 36.4814
L30.8656 36.2481
" />
<path d="M30.8656 36.2481
L30.7323 36.2481
" />
<path d="M31.1656 36.5481
L31.1656 35.8481
" />
<path d="M31.1656 35.8481
L31.5656 36.5481
" />
<path d="M31.5656 36.5481
L31.5656 35.8481
" />
<path d="M31.8989 36.5481
L31.8989 35.8481
" />
<path d="M31.8989 35.8481
L32.0656 35.8481
" />
<path d="M32.0656 35.8481
L32.1656 35.8814
" />
<path d="M32.1656 35.8814
L32.2323 35.9481
" />
<path d="M32.2323 35.9481
L32.2656 36.0148
" />
<path d="M32.2656 36.0148
L32.2989 36.1481
" />
<path d="M32.2989 36.1481
L32.2989 36.2481
" />
<path d="M32.2989 36.2481
L32.2656 36.3814
" />
<path d="M32.2656 36.3814
L32.2323 36.4481
" />
<path d="M32.2323 36.4481
L32.1656 36.5148
" />
<path d="M32.1656 36.5148
L32.0656 36.5481
" />
<path d="M32.0656 36.5481
L31.8989 36.5481
" />
</g><text x="43.2200" y="69.2600"
textLength="1.5867" font-size="0.9333" lengthAdjust="spacingAndGlyphs"
text-anchor="start" opacity="0" stroke-opacity="0">CS</text>
<g class="stroked-text"><desc>CS</desc>
<path d="M43.8656 69.1014
L43.8323 69.1348
" />
<path d="M43.8323 69.1348
L43.7323 69.1681
" />
<path d="M43.7323 69.1681
L43.6656 69.1681
" />
<path d="M43.6656 69.1681
L43.5656 69.1348
" />
<path d="M43.5656 69.1348
L43.4989 69.0681
" />
<path d="M43.4989 69.0681
L43.4656 69.0014
" />
<path d="M43.4656 69.0014
L43.4323 68.8681
" />
<path d="M43.4323 68.8681
L43.4323 68.7681
" />
<path d="M43.4323 68.7681
L43.4656 68.6348
" />
<path d="M43.4656 68.6348
L43.4989 68.5681
" />
<path d="M43.4989 68.5681
L43.5656 68.5014
" />
<path d="M43.5656 68.5014
L43.6656 68.4681
" />
<path d="M43.6656 68.4681
L43.7323 68.4681
" />
<path d="M43.7323 68.4681
L43.8323 68.5014
" />
<path d="M43.8323 68.5014
L43.8656 68.5348
" />
<path d="M44.1323 69.1348
L44.2323 69.1681
" />
<path d="M44.2323 69.1681
L44.3989 69.1681
" />
<path d="M44.3989 69.1681
L44.4656 69.1348
" />
<path d="M44.4656 69.1348
L44.4989 69.1014
" />
<path d="M44.4989 69.1014
L44.5323 69.0348
" />
<path d="M44.5323 69.0348
L44.5323 68.9681
" />
<path d="M44.5323 68.9681
L44.4989 68.9014
" />
<path d="M44.4989 68.9014
L44.4656 68.8681
" />
<path d="M44.4656 68.8681
L44.3989 68.8348
" />
<path d="M44.3989 68.8348
L44.2656 68.8014
" />
<path d="M44.2656 68.8014
L44.1989 68.7681
" />
<path d="M44.1989 68.7681
L44.1656 68.7348
" />
<path d="M44.1656 68.7348
L44.1323 68.6681
" />
<path d="M44.1323 68.6681
L44.1323 68.6014
" />
<path d="M44.1323 68.6014
L44.1656 68.5348
" />
<path d="M44.1656 68.5348
L44.1989 68.5014
" />
<path d="M44.1989 68.5014
L44.2656 68.4681
" />
<path d="M44.2656 68.4681
L44.4323 68.4681
" />
<path d="M44.4323 68.4681
L44.5323 68.5014
" />
</g><text x="34.2200" y="59.1000"
textLength="2.1867" font-size="0.9333" lengthAdjust="spacingAndGlyphs"
text-anchor="start" opacity="0" stroke-opacity="0">PA5</text>
<g class="stroked-text"><desc>PA5</desc>
<path d="M34.4656 59.0081
L34.4656 58.3081
" />
<path d="M34.4656 58.3081
L34.7323 58.3081
" />
<path d="M34.7323 58.3081
L34.7989 58.3414
" />
<path d="M34.7989 58.3414
L34.8323 58.3748
" />
<path d="M34.8323 58.3748
L34.8656 58.4414
" />
<path d="M34.8656 58.4414
L34.8656 58.5414
" />
<path d="M34.8656 58.5414
L34.8323 58.6081
" />
<path d="M34.8323 58.6081
L34.7989 58.6414
" />
<path d="M34.7989 58.6414
L34.7323 58.6748
" />
<path d="M34.7323 58.6748
L34.4656 58.6748
" />
<path d="M35.1323 58.8081
L35.4656 58.8081
" />
<path d="M35.0656 59.0081
L35.2989 58.3081
" />
<path d="M35.2989 58.3081
L35.5323 59.0081
" />
<path d="M36.0989 58.3081
L35.7656 58.3081
" />
<path d="M35.7656 58.3081
L35.7323 58.6414
" />
<path d="M35.7323 58.6414
L35.7656 58.6081
" />
<path d="M35.7656 58.6081
L35.8323 58.5748
" />
<path d="M35.8323 58.5748
L35.9989 58.5748
" />
<path d="M35.9989 58.5748
L36.0656 58.6081
" />
<path d="M36.0656 58.6081
L36.0989 58.6414
" />
<path d="M36.0989 58.6414
L36.1323 58.7081
" />
<path d="M36.1323 58.7081
L36.1323 58.8748
" />
<path d="M36.1323 58.8748
L36.0989 58.9414
" />
<path d="M36.0989 58.9414
L36.0656 58.9748
" />
<path d="M36.0656 58.9748
L35.9989 59.0081
" />
<path d="M35.9989 59.0081
L35.8323 59.0081
" />
<path d="M35.8323 59.0081
L35.7656 58.9748
" />
<path d="M35.7656 58.9748
L35.7323 58.9414
" />
</g><text x="30.2200" y="44.2600"
textLength="2.8533" font-size="0.9333" lengthAdjust="spacingAndGlyphs"
text-anchor="start" opacity="0" stroke-opacity="0">PA10</text>
<g class="stroked-text"><desc>PA10</desc>
<path d="M30.4656 44.1681
L30.4656 43.4681
" />
<path d="M30.4656 43.4681
L30.7323 43.4681
" />
<path d="M30.7323 43.4681
L30.7989 43.5014
" />
<path d="M30.7989 43.5014
L30.8323 43.5348
" />
<path d="M30.8323 43.5348
L30.8656 43.6014
" />
<path d="M30.8656 43.6014
L30.8656 43.7014
" />
<path d="M30.8656 43.7014
L30.8323 43.7681
" />
<path d="M30.8323 43.7681
L30.7989 43.8014
" />
<path d="M30.7989 43.8014
L30.7323 43.8348
" />
<path d="M30.7323 43.8348
L30.4656 43.8348
" />
<path d="M31.1323 43.9681
L31.4656 43.9681
" />
<path d="M31.0656 44.1681
L31.2989 43.4681
" />
<path d="M31.2989 43.4681
L31.5323 44.1681
" />
<path d="M32.1323 44.1681
L31.7323 44.1681
" />
<path d="M31.9323 44.1681
L31.9323 43.4681
" />
<path d="M31.9323 43.4681
L31.8656 43.5681
" />
<path d="M31.8656 43.5681
L31.7989 43.6348
" />
<path d="M31.7989 43.6348
L31.7323 43.6681
" />
<path d="M32.5656 43.4681
L32.6323 43.4681
" />
<path d="M32.6323 43.4681
L32.6989 43.5014
" />
<path d="M32.6989 43.5014
L32.7323 43.5348
" />
<path d="M32.7323 43.5348
L32.7656 43.6014
" />
<path d="M32.7656 43.6014
L32.7989 43.7348
" />
<path d="M32.7989 43.7348
L32.7989 43.9014
" />
<path d="M32.7989 43.9014
L32.7656 44.0348
" />
<path d="M32.7656 44.0348
L32.7323 44.1014
" />
<path d="M32.7323 44.1014
L32.6989 44.1348
" />
<path d="M32.6989 44.1348
L32.6323 44.1681
" />
<path d="M32.6323 44.1681
L32.5656 44.1681
" />
<path d="M32.5656 44.1681
L32.4989 44.1348
" />
<path d="M32.4989 44.1348
L32.4656 44.1014
" />
<path d="M32.4656 44.1014
L32.4323 44.0348
" />
<path d="M32.4323 44.0348
L32.3989 43.9014
" />
<path d="M32.3989 43.9014
L32.3989 43.7348
" />
<path d="M32.3989 43.7348
L32.4323 43.6014
" />
<path d="M32.4323 43.6014
L32.4656 43.5348
" />
<path d="M32.4656 43.5348
L32.4989 43.5014
" />
<path d="M32.4989 43.5014
L32.5656 43.4681
" />
</g><text x="30.2200" y="69.6600"
textLength="2.1867" font-size="0.9333" lengthAdjust="spacingAndGlyphs"
text-anchor="start" opacity="0" stroke-opacity="0">PA2</text>
<g class="stroked-text"><desc>PA2</desc>
<path d="M30.4656 69.5681
L30.4656 68.8681
" />
<path d="M30.4656 68.8681
L30.7323 68.8681
" />
<path d="M30.7323 68.8681
L30.7989 68.9014
" />
<path d="M30.7989 68.9014
L30.8323 68.9348
" />
<path d="M30.8323 68.9348
L30.8656 69.0014
" />
<path d="M30.8656 69.0014
L30.8656 69.1014
" />
<path d="M30.8656 69.1014
L30.8323 69.1681
" />
<path d="M30.8323 69.1681
L30.7989 69.2014
" />
<path d="M30.7989 69.2014
L30.7323 69.2348
" />
<path d="M30.7323 69.2348
L30.4656 69.2348
" />
<path d="M31.1323 69.3681
L31.4656 69.3681
" />
<path d="M31.0656 69.5681
L31.2989 68.8681
" />
<path d="M31.2989 68.8681
L31.5323 69.5681
" />
<path d="M31.7323 68.9348
L31.7656 68.9014
" />
<path d="M31.7656 68.9014
L31.8323 68.8681
" />
<path d="M31.8323 68.8681
L31.9989 68.8681
" />
<path d="M31.9989 68.8681
L32.0656 68.9014
" />
<path d="M32.0656 68.9014
L32.0989 68.9348
" />
<path d="M32.0989 68.9348
L32.1323 69.0014
" />
<path d="M32.1323 69.0014
L32.1323 69.0681
" />
<path d="M32.1323 69.0681
L32.0989 69.1681
" />
<path d="M32.0989 69.1681
L31.6989 69.5681
" />
<path d="M31.6989 69.5681
L32.1323 69.5681
" />
</g><text x="30.2200" y="46.8000"
textLength="2.1867" font-size="0.9333" lengthAdjust="spacingAndGlyphs"
text-anchor="start" opacity="0" stroke-opacity="0">PA9</text>
<g class="stroked-text"><desc>PA9</desc>
<path d="M30.4656 46.7081
L30.4656 46.0081
" />
<path d="M30.4656 46.0081
L30.7323 46.0081
" />
<path d="M30.7323 46.0081
L30.7989 46.0414
" />
<path d="M30.7989 46.0414
L30.8323 46.0748
" />
<path d="M30.8323 46.0748
L30.8656 46.1414
" />
<path d="M30.8656 46.1414
L30.8656 46.2414
" />
<path d="M30.8656 46.2414
L30.8323 46.3081
" />
<path d="M30.8323 46.3081
L30.7989 46.3414
" />
<path d="M30.7989 46.3414
L30.7323 46.3748
" />
<path d="M30.7323 46.3748
L30.4656 46.3748
" />
<path d="M31.1323 46.5081
L31.4656 46.5081
" />
<path d="M31.0656 46.7081
L31.2989 46.0081
" />
<path d="M31.2989 46.0081
L31.5323 46.7081
" />
<path d="M31.7989 46.7081
L31.9323 46.7081
" />
<path d="M31.9323 46.7081
L31.9989 46.6748
" />
<path d="M31.9989 46.6748
L32.0323 46.6414
" />
<path d="M32.0323 46.6414
L32.0989 46.5414
" />
<path d="M32.0989 46.5414
L32.1323 46.4081
" />
<path d="M32.1323 46.4081
L32.1323 46.1414
" />
<path d="M32.1323 46.1414
L32.0989 46.0748
" />
<path d="M32.0989 46.0748
L32.0656 46.0414
" />
<path d="M32.0656 46.0414
L31.9989 46.0081
" />
<path d="M31.9989 46.0081
L31.8656 46.0081
" />
<path d="M31.8656 46.0081
L31.7989 46.0414
" />
<path d="M31.7989 46.0414
L31.7656 46.0748
" />
<path d="M31.7656 46.0748
L31.7323 46.1414
" />
<path d="M31.7323 46.1414
L31.7323 46.3081
" />
<path d="M31.7323 46.3081
L31.7656 46.3748
" />
<path d="M31.7656 46.3748
L31.7989 46.4081
" />
<path d="M31.7989 46.4081
L31.8656 46.4414
" />
<path d="M31.8656 46.4414
L31.9989 46.4414
" />
<path d="M31.9989 46.4414
L32.0656 46.4081
" />
<path d="M32.0656 46.4081
L32.0989 46.3748
" />
<path d="M32.0989 46.3748
L32.1323 46.3081
" />
</g><text x="30.2200" y="62.0400"
textLength="2.1867" font-size="0.9333" lengthAdjust="spacingAndGlyphs"
text-anchor="start" opacity="0" stroke-opacity="0">PA5</text>
<g class="stroked-text"><desc>PA5</desc>
<path d="M30.4656 61.9481
L30.4656 61.2481
" />
<path d="M30.4656 61.2481
L30.7323 61.2481
" />
<path d="M30.7323 61.2481
L30.7989 61.2814
" />
<path d="M30.7989 61.2814
L30.8323 61.3148
" />
<path d="M30.8323 61.3148
L30.8656 61.3814
" />
<path d="M30.8656 61.3814
L30.8656 61.4814
" />
<path d="M30.8656 61.4814
L30.8323 61.5481
" />
<path d="M30.8323 61.5481
L30.7989 61.5814
" />
<path d="M30.7989 61.5814
L30.7323 61.6148
" />
<path d="M30.7323 61.6148
L30.4656 61.6148
" />
<path d="M31.1323 61.7481
L31.4656 61.7481
" />
<path d="M31.0656 61.9481
L31.2989 61.2481
" />
<path d="M31.2989 61.2481
L31.5323 61.9481
" />
<path d="M32.0989 61.2481
L31.7656 61.2481
" />
<path d="M31.7656 61.2481
L31.7323 61.5814
" />
<path d="M31.7323 61.5814
L31.7656 61.5481
" />
<path d="M31.7656 61.5481
L31.8323 61.5148
" />
<path d="M31.8323 61.5148
L31.9989 61.5148
" />
<path d="M31.9989 61.5148
L32.0656 61.5481
" />
<path d="M32.0656 61.5481
L32.0989 61.5814
" />
<path d="M32.0989 61.5814
L32.1323 61.6481
" />
<path d="M32.1323 61.6481
L32.1323 61.8148
" />
<path d="M32.1323 61.8148
L32.0989 61.8814
" />
<path d="M32.0989 61.8814
L32.0656 61.9148
" />
<path d="M32.0656 61.9148
L31.9989 61.9481
" />
<path d="M31.9989 61.9481
L31.8323 61.9481
" />
<path d="M31.8323 61.9481
L31.7656 61.9148
" />
<path d="M31.7656 61.9148
L31.7323 61.8814
" />
</g><text x="30.2200" y="64.5800"
textLength="4.7533" font-size="0.9333" lengthAdjust="spacingAndGlyphs"
text-anchor="start" opacity="0" stroke-opacity="0">DAC_OUT</text>
<g class="stroked-text"><desc>DAC_OUT</desc>
<path d="M30.4656 64.4881
L30.4656 63.7881
" />
<path d="M30.4656 63.7881
L30.6323 63.7881
" />
<path d="M30.6323 63.7881
L30.7323 63.8214
" />
<path d="M30.7323 63.8214
L30.7989 63.8881
" />
<path d="M30.7989 63.8881
L30.8323 63.9548
" />
<path d="M30.8323 63.9548
L30.8656 64.0881
" />
<path d="M30.8656 64.0881
L30.8656 64.1881
" />
<path d="M30.8656 64.1881
L30.8323 64.3214
" />
<path d="M30.8323 64.3214
L30.7989 64.3881
" />
<path d="M30.7989 64.3881
L30.7323 64.4548
" />
<path d="M30.7323 64.4548
L30.6323 64.4881
" />
<path d="M30.6323 64.4881
L30.4656 64.4881
" />
<path d="M31.1323 64.2881
L31.4656 64.2881
" />
<path d="M31.0656 64.4881
L31.2989 63.7881
" />
<path d="M31.2989 63.7881
L31.5323 64.4881
" />
<path d="M32.1656 64.4214
L32.1323 64.4548
" />
<path d="M32.1323 64.4548
L32.0323 64.4881
" />
<path d="M32.0323 64.4881
L31.9656 64.4881
" />
<path d="M31.9656 64.4881
L31.8656 64.4548
" />
<path d="M31.8656 64.4548
L31.7989 64.3881
" />
<path d="M31.7989 64.3881
L31.7656 64.3214
" />
<path d="M31.7656 64.3214
L31.7323 64.1881
" />
<path d="M31.7323 64.1881
L31.7323 64.0881
" />
<path d="M31.7323 64.0881
L31.7656 63.9548
" />
<path d="M31.7656 63.9548
L31.7989 63.8881
" />
<path d="M31.7989 63.8881
L31.8656 63.8214
" />
<path d="M31.8656 63.8214
L31.9656 63.7881
" />
<path d="M31.9656 63.7881
L32.0323 63.7881
" />
<path d="M32.0323 63.7881
L32.1323 63.8214
" />
<path d="M32.1323 63.8214
L32.1656 63.8548
" />
<path d="M32.2989 64.5548
L32.8323 64.5548
" />
<path d="M33.1323 63.7881
L33.2656 63.7881
" />
<path d="M33.2656 63.7881
L33.3323 63.8214
" />
<path d="M33.3323 63.8214
L33.3989 63.8881
" />
<path d="M33.3989 63.8881
L33.4323 64.0214
" />
<path d="M33.4323 64.0214
L33.4323 64.2548
" />
<path d="M33.4323 64.2548
L33.3989 64.3881
" />
<path d="M33.3989 64.3881
L33.3323 64.4548
" />
<path d="M33.3323 64.4548
L33.2656 64.4881
" />
<path d="M33.2656 64.4881
L33.1323 64.4881
" />
<path d="M33.1323 64.4881
L33.0656 64.4548
" />
<path d="M33.0656 64.4548
L32.9989 64.3881
" />
<path d="M32.9989 64.3881
L32.9656 64.2548
" />
<path d="M32.9656 64.2548
L32.9656 64.0214
" />
<path d="M32.9656 64.0214
L32.9989 63.8881
" />
<path d="M32.9989 63.8881
L33.0656 63.8214
" />
<path d="M33.0656 63.8214
L33.1323 63.7881
" />
<path d="M33.7323 63.7881
L33.7323 64.3548
" />
<path d="M33.7323 64.3548
L33.7656 64.4214
" />
<path d="M33.7656 64.4214
L33.7989 64.4548
" />
<path d="M33.7989 64.4548
L33.8656 64.4881
" />
<path d="M33.8656 64.4881
L33.9989 64.4881
" />
<path d="M33.9989 64.4881
L34.0656 64.4548
" />
<path d="M34.0656 64.4548
L34.0989 64.4214
" />
<path d="M34.0989 64.4214
L34.1323 64.3548
" />
<path d="M34.1323 64.3548
L34.1323 63.7881
" />
<path d="M34.3656 63.7881
L34.7656 63.7881
" />
<path d="M34.5656 64.4881
L34.5656 63.7881
" />
</g><text x="43.2200" y="64.1800"
textLength="2.3533" font-size="0.9333" lengthAdjust="spacingAndGlyphs"
text-anchor="start" opacity="0" stroke-opacity="0">GND</text>
<g class="stroked-text"><desc>GND</desc>
<path d="M43.8323 63.4214
L43.7656 63.3881
" />
<path d="M43.7656 63.3881
L43.6656 63.3881
" />
<path d="M43.6656 63.3881
L43.5656 63.4214
" />
<path d="M43.5656 63.4214
L43.4989 63.4881
" />
<path d="M43.4989 63.4881
L43.4656 63.5548
" />
<path d="M43.4656 63.5548
L43.4323 63.6881
" />
<path d="M43.4323 63.6881
L43.4323 63.7881
" />
<path d="M43.4323 63.7881
L43.4656 63.9214
" />
<path d="M43.4656 63.9214
L43.4989 63.9881
" />
<path d="M43.4989 63.9881
L43.5656 64.0548
" />
<path d="M43.5656 64.0548
L43.6656 64.0881
" />
<path d="M43.6656 64.0881
L43.7323 64.0881
" />
<path d="M43.7323 64.0881
L43.8323 64.0548
" />
<path d="M43.8323 64.0548
L43.8656 64.0214
" />
<path d="M43.8656 64.0214
L43.8656 63.7881
" />
<path d="M43.8656 63.7881
L43.7323 63.7881
" />
<path d="M44.1656 64.0881
L44.1656 63.3881
" />
<path d="M44.1656 63.3881
L44.5656 64.0881
" />
<path d="M44.5656 64.0881
L44.5656 63.3881
" />
<path d="M44.8989 64.0881
L44.8989 63.3881
" />
<path d="M44.8989 63.3881
L45.0656 63.3881
" />
<path d="M45.0656 63.3881
L45.1656 63.4214
" />
<path d="M45.1656 63.4214
L45.2323 63.4881
" />
<path d="M45.2323 63.4881
L45.2656 63.5548
" />
<path d="M45.2656 63.5548
L45.2989 63.6881
" />
<path d="M45.2989 63.6881
L45.2989 63.7881
" />
<path d="M45.2989 63.7881
L45.2656 63.9214
" />
<path d="M45.2656 63.9214
L45.2323 63.9881
" />
<path d="M45.2323 63.9881
L45.1656 64.0548
" />
<path d="M45.1656 64.0548
L45.0656 64.0881
" />
<path d="M45.0656 64.0881
L44.8989 64.0881
" />
</g><text x="34.2200" y="69.2600"
textLength="2.4867" font-size="0.9333" lengthAdjust="spacingAndGlyphs"
text-anchor="start" opacity="0" stroke-opacity="0">INT1</text>
<g class="stroked-text"><desc>INT1</desc>
<path d="M34.4656 69.1681
L34.4656 68.4681
" />
<path d="M34.7989 69.1681
L34.7989 68.4681
" />
<path d="M34.7989 68.4681
L35.1989 69.1681
" />
<path d="M35.1989 69.1681
L35.1989 68.4681
" />
<path d="M35.4323 68.4681
L35.8323 68.4681
" />
<path d="M35.6323 69.1681
L35.6323 68.4681
" />
<path d="M36.4323 69.1681
L36.0323 69.1681
" />
<path d="M36.2323 69.1681
L36.2323 68.4681
" />
<path d="M36.2323 68.4681
L36.1656 68.5681
" />
<path d="M36.1656 68.5681
L36.0989 68.6348
" />
<path d="M36.0989 68.6348
L36.0323 68.6681
" />
</g><text x="30.2200" y="54.4200"
textLength="1.5867" font-size="0.9333" lengthAdjust="spacingAndGlyphs"
text-anchor="start" opacity="0" stroke-opacity="0">CS</text>
<g class="stroked-text"><desc>CS</desc>
<path d="M30.8656 54.2614
L30.8323 54.2948
" />
<path d="M30.8323 54.2948
L30.7323 54.3281
" />
<path d="M30.7323 54.3281
L30.6656 54.3281
" />
<path d="M30.6656 54.3281
L30.5656 54.2948
" />
<path d="M30.5656 54.2948
L30.4989 54.2281
" />
<path d="M30.4989 54.2281
L30.4656 54.1614
" />
<path d="M30.4656 54.1614
L30.4323 54.0281
" />
<path d="M30.4323 54.0281
L30.4323 53.9281
" />
<path d="M30.4323 53.9281
L30.4656 53.7948
" />
<path d="M30.4656 53.7948
L30.4989 53.7281
" />
<path d="M30.4989 53.7281
L30.5656 53.6614
" />
<path d="M30.5656 53.6614
L30.6656 53.6281
" />
<path d="M30.6656 53.6281
L30.7323 53.6281
" />
<path d="M30.7323 53.6281
L30.8323 53.6614
" />
<path d="M30.8323 53.6614
L30.8656 53.6948
" />
<path d="M31.1323 54.2948
L31.2323 54.3281
" />
<path d="M31.2323 54.3281
L31.3989 54.3281
" />
<path d="M31.3989 54.3281
L31.4656 54.2948
" />
<path d="M31.4656 54.2948
L31.4989 54.2614
" />
<path d="M31.4989 54.2614
L31.5323 54.1948
" />
<path d="M31.5323 54.1948
L31.5323 54.1281
" />
<path d="M31.5323 54.1281
L31.4989 54.0614
" />
<path d="M31.4989 54.0614
L31.4656 54.0281
" />
<path d="M31.4656 54.0281
L31.3989 53.9948
" />
<path d="M31.3989 53.9948
L31.2656 53.9614
" />
<path d="M31.2656 53.9614
L31.1989 53.9281
" />
<path d="M31.1989 53.9281
L31.1656 53.8948
" />
<path d="M31.1656 53.8948
L31.1323 53.8281
" />
<path d="M31.1323 53.8281
L31.1323 53.7614
" />
<path d="M31.1323 53.7614
L31.1656 53.6948
" />
<path d="M31.1656 53.6948
L31.1989 53.6614
" />
<path d="M31.1989 53.6614
L31.2656 53.6281
" />
<path d="M31.2656 53.6281
L31.4323 53.6281
" />
<path d="M31.4323 53.6281
L31.5323 53.6614
" />
</g><text x="30.2200" y="59.5000"
textLength="2.1867" font-size="0.9333" lengthAdjust="spacingAndGlyphs"
text-anchor="start" opacity="0" stroke-opacity="0">PA6</text>
<g class="stroked-text"><desc>PA6</desc>
<path d="M30.4656 59.4081
L30.4656 58.7081
" />
<path d="M30.4656 58.7081
L30.7323 58.7081
" />
<path d="M30.7323 58.7081
L30.7989 58.7414
" />
<path d="M30.7989 58.7414
L30.8323 58.7748
" />
<path d="M30.8323 58.7748
L30.8656 58.8414
" />
<path d="M30.8656 58.8414
L30.8656 58.9414
" />
<path d="M30.8656 58.9414
L30.8323 59.0081
" />
<path d="M30.8323 59.0081
L30.7989 59.0414
" />
<path d="M30.7989 59.0414
L30.7323 59.0748
" />
<path d="M30.7323 59.0748
L30.4656 59.0748
" />
<path d="M31.1323 59.2081
L31.4656 59.2081
" />
<path d="M31.0656 59.4081
L31.2989 58.7081
" />
<path d="M31.2989 58.7081
L31.5323 59.4081
" />
<path d="M32.0656 58.7081
L31.9323 58.7081
" />
<path d="M31.9323 58.7081
L31.8656 58.7414
" />
<path d="M31.8656 58.7414
L31.8323 58.7748
" />
<path d="M31.8323 58.7748
L31.7656 58.8748
" />
<path d="M31.7656 58.8748
L31.7323 59.0081
" />
<path d="M31.7323 59.0081
L31.7323 59.2748
" />
<path d="M31.7323 59.2748
L31.7656 59.3414
" />
<path d="M31.7656 59.3414
L31.7989 59.3748
" />
<path d="M31.7989 59.3748
L31.8656 59.4081
" />
<path d="M31.8656 59.4081
L31.9989 59.4081
" />
<path d="M31.9989 59.4081
L32.0656 59.3748
" />
<path d="M32.0656 59.3748
L32.0989 59.3414
" />
<path d="M32.0989 59.3414
L32.1323 59.2748
" />
<path d="M32.1323 59.2748
L32.1323 59.1081
" />
<path d="M32.1323 59.1081
L32.0989 59.0414
" />
<path d="M32.0989 59.0414
L32.0656 59.0081
" />
<path d="M32.0656 59.0081
L31.9989 58.9748
" />
<path d="M31.9989 58.9748
L31.8656 58.9748
" />
<path d="M31.8656 58.9748
L31.7989 59.0081
" />
<path d="M31.7989 59.0081
L31.7656 59.0414
" />
<path d="M31.7656 59.0414
L31.7323 59.1081
" />
</g><text x="37.2200" y="44.2600"
textLength="3.3533" font-size="0.9333" lengthAdjust="spacingAndGlyphs"
text-anchor="start" opacity="0" stroke-opacity="0">loop-</text>
<g class="stroked-text"><desc>loop-</desc>
<path d="M37.5656 44.1681
L37.4989 44.1348
" />
<path d="M37.4989 44.1348
L37.4656 44.0681
" />
<path d="M37.4656 44.0681
L37.4656 43.4681
" />
<path d="M37.9323 44.1681
L37.8656 44.1348
" />
<path d="M37.8656 44.1348
L37.8323 44.1014
" />
<path d="M37.8323 44.1014
L37.7989 44.0348
" />
<path d="M37.7989 44.0348
L37.7989 43.8348
" />
<path d="M37.7989 43.8348
L37.8323 43.7681
" />
<path d="M37.8323 43.7681
L37.8656 43.7348
" />
<path d="M37.8656 43.7348
L37.9323 43.7014
" />
<path d="M37.9323 43.7014
L38.0323 43.7014
" />
<path d="M38.0323 43.7014
L38.0989 43.7348
" />
<path d="M38.0989 43.7348
L38.1323 43.7681
" />
<path d="M38.1323 43.7681
L38.1656 43.8348
" />
<path d="M38.1656 43.8348
L38.1656 44.0348
" />
<path d="M38.1656 44.0348
L38.1323 44.1014
" />
<path d="M38.1323 44.1014
L38.0989 44.1348
" />
<path d="M38.0989 44.1348
L38.0323 44.1681
" />
<path d="M38.0323 44.1681
L37.9323 44.1681
" />
<path d="M38.5656 44.1681
L38.4989 44.1348
" />
<path d="M38.4989 44.1348
L38.4656 44.1014
" />
<path d="M38.4656 44.1014
L38.4323 44.0348
" />
<path d="M38.4323 44.0348
L38.4323 43.8348
" />
<path d="M38.4323 43.8348
L38.4656 43.7681
" />
<path d="M38.4656 43.7681
L38.4989 43.7348
" />
<path d="M38.4989 43.7348
L38.5656 43.7014
" />
<path d="M38.5656 43.7014
L38.6656 43.7014
" />
<path d="M38.6656 43.7014
L38.7323 43.7348
" />
<path d="M38.7323 43.7348
L38.7656 43.7681
" />
<path d="M38.7656 43.7681
L38.7989 43.8348
" />
<path d="M38.7989 43.8348
L38.7989 44.0348
" />
<path d="M38.7989 44.0348
L38.7656 44.1014
" />
<path d="M38.7656 44.1014
L38.7323 44.1348
" />
<path d="M38.7323 44.1348
L38.6656 44.1681
" />
<path d="M38.6656 44.1681
L38.5656 44.1681
" />
<path d="M39.0989 43.7014
L39.0989 44.4014
" />
<path d="M39.0989 43.7348
L39.1656 43.7014
" />
<path d="M39.1656 43.7014
L39.2989 43.7014
" />
<path d="M39.2989 43.7014
L39.3656 43.7348
" />
<path d="M39.3656 43.7348
L39.3989 43.7681
" />
<path d="M39.3989 43.7681
L39.4323 43.8348
" />
<path d="M39.4323 43.8348
L39.4323 44.0348
" />
<path d="M39.4323 44.0348
L39.3989 44.1014
" />
<path d="M39.3989 44.1014
L39.3656 44.1348
" />
<path d="M39.3656 44.1348
L39.2989 44.1681
" />
<path d="M39.2989 44.1681
L39.1656 44.1681
" />
<path d="M39.1656 44.1681
L39.0989 44.1348
" />
<path d="M39.7323 43.9014
L40.2656 43.9014
" />
</g><text x="35.8200" y="41.7200"
textLength="4.7533" font-size="0.9333" lengthAdjust="spacingAndGlyphs"
text-anchor="start" opacity="0" stroke-opacity="0">DAC_OUT</text>
<g class="stroked-text"><desc>DAC_OUT</desc>
<path d="M36.0656 41.6281
L36.0656 40.9281
" />
<path d="M36.0656 40.9281
L36.2323 40.9281
" />
<path d="M36.2323 40.9281
L36.3323 40.9614
" />
<path d="M36.3323 40.9614
L36.3989 41.0281
" />
<path d="M36.3989 41.0281
L36.4323 41.0948
" />
<path d="M36.4323 41.0948
L36.4656 41.2281
" />
<path d="M36.4656 41.2281
L36.4656 41.3281
" />
<path d="M36.4656 41.3281
L36.4323 41.4614
" />
<path d="M36.4323 41.4614
L36.3989 41.5281
" />
<path d="M36.3989 41.5281
L36.3323 41.5948
" />
<path d="M36.3323 41.5948
L36.2323 41.6281
" />
<path d="M36.2323 41.6281
L36.0656 41.6281
" />
<path d="M36.7323 41.4281
L37.0656 41.4281
" />
<path d="M36.6656 41.6281
L36.8989 40.9281
" />
<path d="M36.8989 40.9281
L37.1323 41.6281
" />
<path d="M37.7656 41.5614
L37.7323 41.5948
" />
<path d="M37.7323 41.5948
L37.6323 41.6281
" />
<path d="M37.6323 41.6281
L37.5656 41.6281
" />
<path d="M37.5656 41.6281
L37.4656 41.5948
" />
<path d="M37.4656 41.5948
L37.3989 41.5281
" />
<path d="M37.3989 41.5281
L37.3656 41.4614
" />
<path d="M37.3656 41.4614
L37.3323 41.3281
" />
<path d="M37.3323 41.3281
L37.3323 41.2281
" />
<path d="M37.3323 41.2281
L37.3656 41.0948
" />
<path d="M37.3656 41.0948
L37.3989 41.0281
" />
<path d="M37.3989 41.0281
L37.4656 40.9614
" />
<path d="M37.4656 40.9614
L37.5656 40.9281
" />
<path d="M37.5656 40.9281
L37.6323 40.9281
" />
<path d="M37.6323 40.9281
L37.7323 40.9614
" />
<path d="M37.7323 40.9614
L37.7656 40.9948
" />
<path d="M37.8989 41.6948
L38.4323 41.6948
" />
<path d="M38.7323 40.9281
L38.8656 40.9281
" />
<path d="M38.8656 40.9281
L38.9323 40.9614
" />
<path d="M38.9323 40.9614
L38.9989 41.0281
" />
<path d="M38.9989 41.0281
L39.0323 41.1614
" />
<path d="M39.0323 41.1614
L39.0323 41.3948
" />
<path d="M39.0323 41.3948
L38.9989 41.5281
" />
<path d="M38.9989 41.5281
L38.9323 41.5948
" />
<path d="M38.9323 41.5948
L38.8656 41.6281
" />
<path d="M38.8656 41.6281
L38.7323 41.6281
" />
<path d="M38.7323 41.6281
L38.6656 41.5948
" />
<path d="M38.6656 41.5948
L38.5989 41.5281
" />
<path d="M38.5989 41.5281
L38.5656 41.3948
" />
<path d="M38.5656 41.3948
L38.5656 41.1614
" />
<path d="M38.5656 41.1614
L38.5989 41.0281
" />
<path d="M38.5989 41.0281
L38.6656 40.9614
" />
<path d="M38.6656 40.9614
L38.7323 40.9281
" />
<path d="M39.3323 40.9281
L39.3323 41.4948
" />
<path d="M39.3323 41.4948
L39.3656 41.5614
" />
<path d="M39.3656 41.5614
L39.3989 41.5948
" />
<path d="M39.3989 41.5948
L39.4656 41.6281
" />
<path d="M39.4656 41.6281
L39.5989 41.6281
" />
<path d="M39.5989 41.6281
L39.6656 41.5948
" />
<path d="M39.6656 41.5948
L39.6989 41.5614
" />
<path d="M39.6989 41.5614
L39.7323 41.4948
" />
<path d="M39.7323 41.4948
L39.7323 40.9281
" />
<path d="M39.9656 40.9281
L40.3656 40.9281
" />
<path d="M40.1656 41.6281
L40.1656 40.9281
" />
</g><text x="43.2200" y="66.7200"
textLength="0.8867" font-size="0.9333" lengthAdjust="spacingAndGlyphs"
text-anchor="start" opacity="0" stroke-opacity="0">X</text>
<g class="stroked-text"><desc>X</desc>
<path d="M43.3989 65.9281
L43.8656 66.6281
" />
<path d="M43.8656 65.9281
L43.3989 66.6281
" />
</g><text x="37.5533" y="39.1800"
textLength="2.1533" font-size="0.9333" lengthAdjust="spacingAndGlyphs"
text-anchor="start" opacity="0" stroke-opacity="0">24V</text>
<g class="stroked-text"><desc>24V</desc>
<path d="M37.7656 38.4548
L37.7989 38.4214
" />
<path d="M37.7989 38.4214
L37.8656 38.3881
" />
<path d="M37.8656 38.3881
L38.0323 38.3881
" />
<path d="M38.0323 38.3881
L38.0989 38.4214
" />
<path d="M38.0989 38.4214
L38.1323 38.4548
" />
<path d="M38.1323 38.4548
L38.1656 38.5214
" />
<path d="M38.1656 38.5214
L38.1656 38.5881
" />
<path d="M38.1656 38.5881
L38.1323 38.6881
" />
<path d="M38.1323 38.6881
L37.7323 39.0881
" />
<path d="M37.7323 39.0881
L38.1656 39.0881
" />
<path d="M38.7656 38.6214
L38.7656 39.0881
" />
<path d="M38.5989 38.3548
L38.4323 38.8548
" />
<path d="M38.4323 38.8548
L38.8656 38.8548
" />
<path d="M39.0323 38.3881
L39.2656 39.0881
" />
<path d="M39.2656 39.0881
L39.4989 38.3881
" />
</g><text x="31.2200" y="12.1000"
textLength="1.4867" font-size="0.9333" lengthAdjust="spacingAndGlyphs"
text-anchor="start" opacity="0" stroke-opacity="0">5V</text>
<g class="stroked-text"><desc>5V</desc>
<path d="M31.7989 11.3081
L31.4656 11.3081
" />
<path d="M31.4656 11.3081
L31.4323 11.6414
" />
<path d="M31.4323 11.6414
L31.4656 11.6081
" />
<path d="M31.4656 11.6081
L31.5323 11.5748
" />
<path d="M31.5323 11.5748
L31.6989 11.5748
" />
<path d="M31.6989 11.5748
L31.7656 11.6081
" />
<path d="M31.7656 11.6081
L31.7989 11.6414
" />
<path d="M31.7989 11.6414
L31.8323 11.7081
" />
<path d="M31.8323 11.7081
L31.8323 11.8748
" />
<path d="M31.8323 11.8748
L31.7989 11.9414
" />
<path d="M31.7989 11.9414
L31.7656 11.9748
" />
<path d="M31.7656 11.9748
L31.6989 12.0081
" />
<path d="M31.6989 12.0081
L31.5323 12.0081
" />
<path d="M31.5323 12.0081
L31.4656 11.9748
" />
<path d="M31.4656 11.9748
L31.4323 11.9414
" />
<path d="M32.0323 11.3081
L32.2656 12.0081
" />
<path d="M32.2656 12.0081
L32.4989 11.3081
" />
</g><text x="34.2200" y="66.7200"
textLength="2.4867" font-size="0.9333" lengthAdjust="spacingAndGlyphs"
text-anchor="start" opacity="0" stroke-opacity="0">INT2</text>
<g class="stroked-text"><desc>INT2</desc>
<path d="M34.4656 66.6281
L34.4656 65.9281
" />
<path d="M34.7989 66.6281
L34.7989 65.9281
" />
<path d="M34.7989 65.9281
L35.1989 66.6281
" />
<path d="M35.1989 66.6281
L35.1989 65.9281
" />
<path d="M35.4323 65.9281
L35.8323 65.9281
" />
<path d="M35.6323 66.6281
L35.6323 65.9281
" />
<path d="M36.0323 65.9948
L36.0656 65.9614
" />
<path d="M36.0656 65.9614
L36.1323 65.9281
" />
<path d="M36.1323 65.9281
L36.2989 65.9281
" />
<path d="M36.2989 65.9281
L36.3656 65.9614
" />
<path d="M36.3656 65.9614
L36.3989 65.9948
" />
<path d="M36.3989 65.9948
L36.4323 66.0614
" />
<path d="M36.4323 66.0614
L36.4323 66.1281
" />
<path d="M36.4323 66.1281
L36.3989 66.2281
" />
<path d="M36.3989 66.2281
L35.9989 66.6281
" />
<path d="M35.9989 66.6281
L36.4323 66.6281
" />
</g><text x="30.2200" y="22.1800"
textLength="2.1533" font-size="0.9333" lengthAdjust="spacingAndGlyphs"
text-anchor="start" opacity="0" stroke-opacity="0">3V3</text>
<g class="stroked-text"><desc>3V3</desc>
<path d="M30.3989 21.3881
L30.8323 21.3881
" />
<path d="M30.8323 21.3881
L30.5989 21.6548
" />
<path d="M30.5989 21.6548
L30.6989 21.6548
" />
<path d="M30.6989 21.6548
L30.7656 21.6881
" />
<path d="M30.7656 21.6881
L30.7989 21.7214
" />
<path d="M30.7989 21.7214
L30.8323 21.7881
" />
<path d="M30.8323 21.7881
L30.8323 21.9548
" />
<path d="M30.8323 21.9548
L30.7989 22.0214
" />
<path d="M30.7989 22.0214
L30.7656 22.0548
" />
<path d="M30.7656 22.0548
L30.6989 22.0881
" />
<path d="M30.6989 22.0881
L30.4989 22.0881
" />
<path d="M30.4989 22.0881
L30.4323 22.0548
" />
<path d="M30.4323 22.0548
L30.3989 22.0214
" />
<path d="M31.0323 21.3881
L31.2656 22.0881
" />
<path d="M31.2656 22.0881
L31.4989 21.3881
" />
<path d="M31.6656 21.3881
L32.0989 21.3881
" />
<path d="M32.0989 21.3881
L31.8656 21.6548
" />
<path d="M31.8656 21.6548
L31.9656 21.6548
" />
<path d="M31.9656 21.6548
L32.0323 21.6881
" />
<path d="M32.0323 21.6881
L32.0656 21.7214
" />
<path d="M32.0656 21.7214
L32.0989 21.7881
" />
<path d="M32.0989 21.7881
L32.0989 21.9548
" />
<path d="M32.0989 21.9548
L32.0656 22.0214
" />
<path d="M32.0656 22.0214
L32.0323 22.0548
" />
<path d="M32.0323 22.0548
L31.9656 22.0881
" />
<path d="M31.9656 22.0881
L31.7656 22.0881
" />
<path d="M31.7656 22.0881
L31.6989 22.0548
" />
<path d="M31.6989 22.0548
L31.6656 22.0214
" />
</g><text x="30.2200" y="51.8800"
textLength="2.4867" font-size="0.9333" lengthAdjust="spacingAndGlyphs"
text-anchor="start" opacity="0" stroke-opacity="0">INT2</text>
<g class="stroked-text"><desc>INT2</desc>
<path d="M30.4656 51.7881
L30.4656 51.0881
" />
<path d="M30.7989 51.7881
L30.7989 51.0881
" />
<path d="M30.7989 51.0881
L31.1989 51.7881
" />
<path d="M31.1989 51.7881
L31.1989 51.0881
" />
<path d="M31.4323 51.0881
L31.8323 51.0881
" />
<path d="M31.6323 51.7881
L31.6323 51.0881
" />
<path d="M32.0323 51.1548
L32.0656 51.1214
" />
<path d="M32.0656 51.1214
L32.1323 51.0881
" />
<path d="M32.1323 51.0881
L32.2989 51.0881
" />
<path d="M32.2989 51.0881
L32.3656 51.1214
" />
<path d="M32.3656 51.1214
L32.3989 51.1548
" />
<path d="M32.3989 51.1548
L32.4323 51.2214
" />
<path d="M32.4323 51.2214
L32.4323 51.2881
" />
<path d="M32.4323 51.2881
L32.3989 51.3881
" />
<path d="M32.3989 51.3881
L31.9989 51.7881
" />
<path d="M31.9989 51.7881
L32.4323 51.7881
" />
</g><text x="30.2200" y="19.6400"
textLength="2.3533" font-size="0.9333" lengthAdjust="spacingAndGlyphs"
text-anchor="start" opacity="0" stroke-opacity="0">GND</text>
<g class="stroked-text"><desc>GND</desc>
<path d="M30.8323 18.8814
L30.7656 18.8481
" />
<path d="M30.7656 18.8481
L30.6656 18.8481
" />
<path d="M30.6656 18.8481
L30.5656 18.8814
" />
<path d="M30.5656 18.8814
L30.4989 18.9481
" />
<path d="M30.4989 18.9481
L30.4656 19.0148
" />
<path d="M30.4656 19.0148
L30.4323 19.1481
" />
<path d="M30.4323 19.1481
L30.4323 19.2481
" />
<path d="M30.4323 19.2481
L30.4656 19.3814
" />
<path d="M30.4656 19.3814
L30.4989 19.4481
" />
<path d="M30.4989 19.4481
L30.5656 19.5148
" />
<path d="M30.5656 19.5148
L30.6656 19.5481
" />
<path d="M30.6656 19.5481
L30.7323 19.5481
" />
<path d="M30.7323 19.5481
L30.8323 19.5148
" />
<path d="M30.8323 19.5148
L30.8656 19.4814
" />
<path d="M30.8656 19.4814
L30.8656 19.2481
" />
<path d="M30.8656 19.2481
L30.7323 19.2481
" />
<path d="M31.1656 19.5481
L31.1656 18.8481
" />
<path d="M31.1656 18.8481
L31.5656 19.5481
" />
<path d="M31.5656 19.5481
L31.5656 18.8481
" />
<path d="M31.8989 19.5481
L31.8989 18.8481
" />
<path d="M31.8989 18.8481
L32.0656 18.8481
" />
<path d="M32.0656 18.8481
L32.1656 18.8814
" />
<path d="M32.1656 18.8814
L32.2323 18.9481
" />
<path d="M32.2323 18.9481
L32.2656 19.0148
" />
<path d="M32.2656 19.0148
L32.2989 19.1481
" />
<path d="M32.2989 19.1481
L32.2989 19.2481
" />
<path d="M32.2989 19.2481
L32.2656 19.3814
" />
<path d="M32.2656 19.3814
L32.2323 19.4481
" />
<path d="M32.2323 19.4481
L32.1656 19.5148
" />
<path d="M32.1656 19.5148
L32.0656 19.5481
" />
<path d="M32.0656 19.5481
L31.8989 19.5481
" />
</g><text x="30.2200" y="41.7200"
textLength="2.1533" font-size="0.9333" lengthAdjust="spacingAndGlyphs"
text-anchor="start" opacity="0" stroke-opacity="0">3V3</text>
<g class="stroked-text"><desc>3V3</desc>
<path d="M30.3989 40.9281
L30.8323 40.9281
" />
<path d="M30.8323 40.9281
L30.5989 41.1948
" />
<path d="M30.5989 41.1948
L30.6989 41.1948
" />
<path d="M30.6989 41.1948
L30.7656 41.2281
" />
<path d="M30.7656 41.2281
L30.7989 41.2614
" />
<path d="M30.7989 41.2614
L30.8323 41.3281
" />
<path d="M30.8323 41.3281
L30.8323 41.4948
" />
<path d="M30.8323 41.4948
L30.7989 41.5614
" />
<path d="M30.7989 41.5614
L30.7656 41.5948
" />
<path d="M30.7656 41.5948
L30.6989 41.6281
" />
<path d="M30.6989 41.6281
L30.4989 41.6281
" />
<path d="M30.4989 41.6281
L30.4323 41.5948
" />
<path d="M30.4323 41.5948
L30.3989 41.5614
" />
<path d="M31.0323 40.9281
L31.2656 41.6281
" />
<path d="M31.2656 41.6281
L31.4989 40.9281
" />
<path d="M31.6656 40.9281
L32.0989 40.9281
" />
<path d="M32.0989 40.9281
L31.8656 41.1948
" />
<path d="M31.8656 41.1948
L31.9656 41.1948
" />
<path d="M31.9656 41.1948
L32.0323 41.2281
" />
<path d="M32.0323 41.2281
L32.0656 41.2614
" />
<path d="M32.0656 41.2614
L32.0989 41.3281
" />
<path d="M32.0989 41.3281
L32.0989 41.4948
" />
<path d="M32.0989 41.4948
L32.0656 41.5614
" />
<path d="M32.0656 41.5614
L32.0323 41.5948
" />
<path d="M32.0323 41.5948
L31.9656 41.6281
" />
<path d="M31.9656 41.6281
L31.7656 41.6281
" />
<path d="M31.7656 41.6281
L31.6989 41.5948
" />
<path d="M31.6989 41.5948
L31.6656 41.5614
" />
</g><text x="35.2200" y="64.1800"
textLength="2.1867" font-size="0.9333" lengthAdjust="spacingAndGlyphs"
text-anchor="start" opacity="0" stroke-opacity="0">PA6</text>
<g class="stroked-text"><desc>PA6</desc>
<path d="M35.4656 64.0881
L35.4656 63.3881
" />
<path d="M35.4656 63.3881
L35.7323 63.3881
" />
<path d="M35.7323 63.3881
L35.7989 63.4214
" />
<path d="M35.7989 63.4214
L35.8323 63.4548
" />
<path d="M35.8323 63.4548
L35.8656 63.5214
" />
<path d="M35.8656 63.5214
L35.8656 63.6214
" />
<path d="M35.8656 63.6214
L35.8323 63.6881
" />
<path d="M35.8323 63.6881
L35.7989 63.7214
" />
<path d="M35.7989 63.7214
L35.7323 63.7548
" />
<path d="M35.7323 63.7548
L35.4656 63.7548
" />
<path d="M36.1323 63.8881
L36.4656 63.8881
" />
<path d="M36.0656 64.0881
L36.2989 63.3881
" />
<path d="M36.2989 63.3881
L36.5323 64.0881
" />
<path d="M37.0656 63.3881
L36.9323 63.3881
" />
<path d="M36.9323 63.3881
L36.8656 63.4214
" />
<path d="M36.8656 63.4214
L36.8323 63.4548
" />
<path d="M36.8323 63.4548
L36.7656 63.5548
" />
<path d="M36.7656 63.5548
L36.7323 63.6881
" />
<path d="M36.7323 63.6881
L36.7323 63.9548
" />
<path d="M36.7323 63.9548
L36.7656 64.0214
" />
<path d="M36.7656 64.0214
L36.7989 64.0548
" />
<path d="M36.7989 64.0548
L36.8656 64.0881
" />
<path d="M36.8656 64.0881
L36.9989 64.0881
" />
<path d="M36.9989 64.0881
L37.0656 64.0548
" />
<path d="M37.0656 64.0548
L37.0989 64.0214
" />
<path d="M37.0989 64.0214
L37.1323 63.9548
" />
<path d="M37.1323 63.9548
L37.1323 63.7881
" />
<path d="M37.1323 63.7881
L37.0989 63.7214
" />
<path d="M37.0989 63.7214
L37.0656 63.6881
" />
<path d="M37.0656 63.6881
L36.9989 63.6548
" />
<path d="M36.9989 63.6548
L36.8656 63.6548
" />
<path d="M36.8656 63.6548
L36.7989 63.6881
" />
<path d="M36.7989 63.6881
L36.7656 63.7214
" />
<path d="M36.7656 63.7214
L36.7323 63.7881
" />
</g></g>
<g style="fill:none; 
stroke:#F2EDA1; stroke-width:0.1500; stroke-opacity:1; 
stroke-linecap:round; stroke-linejoin:round;">
<text x="28.2200" y="32.2200"
textLength="1.9643" font-size="1.3333" lengthAdjust="spacingAndGlyphs"
text-anchor="middle" opacity="0" stroke-opacity="0">J7</text>
<g class="stroked-text"><desc>J7</desc>
<path d="M27.8867 31.1748
L27.8867 31.8891
" />
<path d="M27.8867 31.8891
L27.8390 32.0320
" />
<path d="M27.8390 32.0320
L27.7438 32.1272
" />
<path d="M27.7438 32.1272
L27.6010 32.1748
" />
<path d="M27.6010 32.1748
L27.5057 32.1748
" />
<path d="M28.2676 31.1748
L28.9343 31.1748
" />
<path d="M28.9343 31.1748
L28.5057 32.1748
" />
</g><text x="28.2200" y="24.9800"
textLength="2.9167" font-size="1.3333" lengthAdjust="spacingAndGlyphs"
text-anchor="middle" opacity="0" stroke-opacity="0">J12</text>
<g class="stroked-text"><desc>J12</desc>
<path d="M27.4105 23.9348
L27.4105 24.6491
" />
<path d="M27.4105 24.6491
L27.3629 24.7920
" />
<path d="M27.3629 24.7920
L27.2676 24.8872
" />
<path d="M27.2676 24.8872
L27.1248 24.9348
" />
<path d="M27.1248 24.9348
L27.0295 24.9348
" />
<path d="M28.4105 24.9348
L27.8390 24.9348
" />
<path d="M28.1248 24.9348
L28.1248 23.9348
" />
<path d="M28.1248 23.9348
L28.0295 24.0777
" />
<path d="M28.0295 24.0777
L27.9343 24.1729
" />
<path d="M27.9343 24.1729
L27.8390 24.2205
" />
<path d="M28.7914 24.0301
L28.8390 23.9824
" />
<path d="M28.8390 23.9824
L28.9343 23.9348
" />
<path d="M28.9343 23.9348
L29.1724 23.9348
" />
<path d="M29.1724 23.9348
L29.2676 23.9824
" />
<path d="M29.2676 23.9824
L29.3152 24.0301
" />
<path d="M29.3152 24.0301
L29.3629 24.1253
" />
<path d="M29.3629 24.1253
L29.3629 24.2205
" />
<path d="M29.3629 24.2205
L29.3152 24.3634
" />
<path d="M29.3152 24.3634
L28.7438 24.9348
" />
<path d="M28.7438 24.9348
L29.3629 24.9348
" />
</g><text x="42.2200" y="32.2200"
textLength="1.9643" font-size="1.3333" lengthAdjust="spacingAndGlyphs"
text-anchor="middle" opacity="0" stroke-opacity="0">J3</text>
<g class="stroked-text"><desc>J3</desc>
<path d="M41.8867 31.1748
L41.8867 31.8891
" />
<path d="M41.8867 31.8891
L41.8390 32.0320
" />
<path d="M41.8390 32.0320
L41.7438 32.1272
" />
<path d="M41.7438 32.1272
L41.6010 32.1748
" />
<path d="M41.6010 32.1748
L41.5057 32.1748
" />
<path d="M42.2676 31.1748
L42.8867 31.1748
" />
<path d="M42.8867 31.1748
L42.5533 31.5558
" />
<path d="M42.5533 31.5558
L42.6962 31.5558
" />
<path d="M42.6962 31.5558
L42.7914 31.6034
" />
<path d="M42.7914 31.6034
L42.8390 31.6510
" />
<path d="M42.8390 31.6510
L42.8867 31.7462
" />
<path d="M42.8867 31.7462
L42.8867 31.9843
" />
<path d="M42.8867 31.9843
L42.8390 32.0796
" />
<path d="M42.8390 32.0796
L42.7914 32.1272
" />
<path d="M42.7914 32.1272
L42.6962 32.1748
" />
<path d="M42.6962 32.1748
L42.4105 32.1748
" />
<path d="M42.4105 32.1748
L42.3152 32.1272
" />
<path d="M42.3152 32.1272
L42.2676 32.0796
" />
</g><g transform="rotate(-90.000000 39.6000 9.1000)">
<text x="39.6000" y="9.6000"
textLength="1.9643" font-size="1.3333" lengthAdjust="spacingAndGlyphs"
text-anchor="middle" opacity="0" stroke-opacity="0">J1</text>
</g>
<g class="stroked-text"><desc>J1</desc>
<path d="M39.0548 9.4333
L39.7691 9.4333
" />
<path d="M39.7691 9.4333
L39.9120 9.4809
" />
<path d="M39.9120 9.4809
L40.0072 9.5762
" />
<path d="M40.0072 9.5762
L40.0548 9.7190
" />
<path d="M40.0548 9.7190
L40.0548 9.8143
" />
<path d="M40.0548 8.4333
L40.0548 9.0048
" />
<path d="M40.0548 8.7190
L39.0548 8.7190
" />
<path d="M39.0548 8.7190
L39.1977 8.8143
" />
<path d="M39.1977 8.8143
L39.2929 8.9095
" />
<path d="M39.2929 8.9095
L39.3405 9.0048
" />
</g></g>
<g style="fill:none; 
stroke:#F2EDA1; stroke-width:0.1200; stroke-opacity:1; 
stroke-linecap:round; stroke-linejoin:round;">
<path d="M26.8400 32.7200
L28.2200 32.7200
" />
<path d="M26.8400 34.1000
L26.8400 32.7200
" />
<path d="M26.8400 35.3700
L26.8400 71.0400
" />
<path d="M26.8400 35.3700
L29.6000 35.3700
" />
<path d="M26.8400 71.0400
L29.6000 71.0400
" />
<path d="M29.6000 35.3700
L29.6000 71.0400
" />
<path d="M26.8400 20.8300
L26.8400 15.6400
" />
<path d="M29.6000 15.6400
L26.8400 15.6400
" />
<path d="M29.6000 20.8300
L26.8400 20.8300
" />
<path d="M29.6000 20.8300
L29.6000 15.6400
" />
<path d="M29.6000 22.1000
L29.6000 23.4800
" />
<path d="M29.6000 23.4800
L28.2200 23.4800
" />
<path d="M40.8400 32.7200
L42.2200 32.7200
" />
<path d="M40.8400 34.1000
L40.8400 32.7200
" />
<path d="M40.8400 35.3700
L40.8400 48.1800
" />
<path d="M40.8400 35.3700
L43.6000 35.3700
" />
<path d="M40.8400 48.1800
L43.6000 48.1800
" />
<path d="M43.6000 35.3700
L43.6000 48.1800
" />
<path d="M30.7600 7.7200
L30.7600 10.4800
" />
<path d="M35.9500 7.7200
L30.7600 7.7200
" />
<path d="M35.9500 7.7200
L35.9500 10.4800
" />
<path d="M35.9500 10.4800
L30.7600 10.4800
" />
<path d="M37.2200 7.7200
L38.6000 7.7200
" />
<path d="M38.6000 7.7200
L38.6000 9.1000
" />
</g> 
</svg>
